<?xml version="1.0" encoding="UTF-8" standalone="no"?>
<!DOCTYPE svg PUBLIC "-//W3C//DTD SVG 1.1//EN" "http://www.w3.org/Graphics/SVG/1.1/DTD/svg11.dtd">
<svg width="100%" height="100%" viewBox="0 0 64 64" version="1.1" xmlns="http://www.w3.org/2000/svg" xmlns:xlink="http://www.w3.org/1999/xlink" xml:space="preserve" xmlns:serif="http://www.serif.com/" style="fill-rule:evenodd;clip-rule:evenodd;stroke-linecap:round;stroke-linejoin:round;stroke-miterlimit:1.5;">
    <g transform="matrix(1,0,0,1,-80,0)">
        <g id="headset" transform="matrix(0.5,0,0,0.5,80,7.10543e-15)">
            <rect x="0" y="0" width="128" height="128" style="fill:none;"/>
            <g transform="matrix(2.61224,0,0,2.61224,-218.122,-20.1224)">
                <ellipse cx="93.5" cy="41.5" rx="7" ry="14" style="fill:rgb(242,242,242);"/>
                <path d="M93.59,27.501L93.681,27.505L93.77,27.51L93.86,27.518L93.949,27.528L94.038,27.541L94.127,27.555L94.215,27.572L94.303,27.591L94.391,27.613L94.478,27.636L94.565,27.661L94.652,27.689L94.738,27.719L94.824,27.751L94.91,27.785L94.995,27.821L95.08,27.859L95.164,27.899L95.249,27.941L95.332,27.985L95.415,28.031L95.498,28.08L95.581,28.13L95.663,28.182L95.744,28.236L95.825,28.292L95.906,28.35L95.986,28.41L96.066,28.472L96.145,28.535L96.224,28.601L96.302,28.668L96.38,28.738L96.457,28.809L96.534,28.881L96.61,28.956L96.686,29.033L96.761,29.111L96.835,29.191L96.91,29.272L96.983,29.356L97.056,29.441L97.129,29.528L97.2,29.617L97.272,29.707L97.343,29.799L97.413,29.892L97.482,29.988L97.551,30.084L97.619,30.183L97.687,30.283L97.754,30.384L97.821,30.488L97.886,30.592L97.952,30.699L98.016,30.806L98.08,30.916L98.143,31.026L98.206,31.139L98.267,31.253L98.329,31.368L98.389,31.484L98.449,31.602L98.508,31.722L98.566,31.843L98.624,31.965L98.681,32.089L98.737,32.214L98.792,32.34L98.847,32.468L98.901,32.597L98.954,32.727L99.006,32.859L99.058,32.992L99.109,33.126L99.159,33.261L99.208,33.398L99.256,33.536L99.304,33.675L99.351,33.815L99.397,33.956L99.442,34.099L99.486,34.243L99.529,34.388L99.572,34.534L99.614,34.681L99.655,34.829L99.695,34.978L99.734,35.129L99.772,35.28L99.809,35.433L99.846,35.586L99.881,35.741L99.916,35.896L99.95,36.053L99.982,36.21L100.014,36.369L100.045,36.528L100.075,36.688L100.104,36.85L100.132,37.012L100.159,37.175L100.185,37.339L100.21,37.504L100.234,37.669L100.257,37.836L100.279,38.003L100.301,38.171L100.321,38.34L100.34,38.51L100.358,38.68L100.375,38.851L100.391,39.023L100.405,39.196L100.419,39.369L100.432,39.543L100.444,39.718L100.454,39.893L100.464,40.069L100.472,40.246L100.48,40.423L100.486,40.601L100.491,40.78L100.495,40.959L100.498,41.139L100.499,41.319L100.5,41.5L100.499,41.681L100.498,41.861L100.495,42.041L100.491,42.22L100.486,42.399L100.48,42.577L100.472,42.754L100.464,42.931L100.454,43.107L100.444,43.282L100.432,43.457L100.419,43.631L100.405,43.804L100.391,43.977L100.375,44.149L100.358,44.32L100.34,44.49L100.321,44.66L100.301,44.829L100.279,44.997L100.257,45.164L100.234,45.331L100.21,45.496L100.185,45.661L100.159,45.825L100.132,45.988L100.104,46.15L100.075,46.312L100.045,46.472L100.014,46.631L99.982,46.79L99.95,46.947L99.916,47.104L99.881,47.259L99.846,47.414L99.809,47.567L99.772,47.72L99.734,47.871L99.695,48.022L99.655,48.171L99.614,48.319L99.572,48.466L99.529,48.612L99.486,48.757L99.442,48.901L99.397,49.044L99.351,49.185L99.304,49.325L99.256,49.464L99.208,49.602L99.159,49.739L99.109,49.874L99.058,50.008L99.006,50.141L98.954,50.273L98.901,50.403L98.847,50.532L98.792,50.66L98.737,50.786L98.681,50.911L98.624,51.035L98.566,51.157L98.508,51.278L98.449,51.398L98.389,51.516L98.329,51.632L98.267,51.747L98.206,51.861L98.143,51.974L98.08,52.084L98.016,52.194L97.952,52.301L97.886,52.408L97.821,52.512L97.754,52.616L97.687,52.717L97.619,52.817L97.551,52.916L97.482,53.012L97.413,53.108L97.343,53.201L97.272,53.293L97.2,53.383L97.129,53.472L97.056,53.559L96.983,53.644L96.91,53.728L96.835,53.809L96.761,53.889L96.686,53.967L96.61,54.044L96.534,54.119L96.457,54.191L96.38,54.262L96.302,54.332L96.224,54.399L96.145,54.465L96.066,54.528L95.986,54.59L95.906,54.65L95.825,54.708L95.744,54.764L95.663,54.818L95.581,54.87L95.498,54.92L95.415,54.969L95.332,55.015L95.249,55.059L95.164,55.101L95.08,55.141L94.995,55.179L94.91,55.215L94.824,55.249L94.738,55.281L94.652,55.311L94.565,55.339L94.478,55.364L94.391,55.387L94.303,55.409L94.215,55.428L94.127,55.445L94.038,55.459L93.949,55.472L93.86,55.482L93.77,55.49L93.681,55.495L93.59,55.499L93.5,55.5L93.41,55.499L93.319,55.495L93.23,55.49L93.14,55.482L93.051,55.472L92.962,55.459L92.873,55.445L92.785,55.428L92.697,55.409L92.609,55.387L92.522,55.364L92.435,55.339L92.348,55.311L92.262,55.281L92.176,55.249L92.09,55.215L92.005,55.179L91.92,55.141L91.836,55.101L91.751,55.059L91.668,55.015L91.585,54.969L91.502,54.92L91.419,54.87L91.337,54.818L91.256,54.764L91.175,54.708L91.094,54.65L91.014,54.59L90.934,54.528L90.855,54.465L90.776,54.399L90.698,54.332L90.62,54.262L90.543,54.191L90.466,54.119L90.39,54.044L90.314,53.967L90.239,53.889L90.165,53.809L90.09,53.728L90.017,53.644L89.944,53.559L89.871,53.472L89.8,53.383L89.728,53.293L89.657,53.201L89.587,53.108L89.518,53.012L89.449,52.916L89.381,52.817L89.313,52.717L89.246,52.616L89.179,52.512L89.114,52.408L89.048,52.301L88.984,52.194L88.92,52.084L88.857,51.974L88.794,51.861L88.733,51.747L88.671,51.632L88.611,51.516L88.551,51.398L88.492,51.278L88.434,51.157L88.376,51.035L88.319,50.911L88.263,50.786L88.208,50.66L88.153,50.532L88.099,50.403L88.046,50.273L87.994,50.141L87.942,50.008L87.891,49.874L87.841,49.739L87.792,49.602L87.744,49.464L87.696,49.325L87.649,49.185L87.603,49.044L87.558,48.901L87.514,48.757L87.471,48.612L87.428,48.466L87.386,48.319L87.345,48.171L87.305,48.022L87.266,47.871L87.228,47.72L87.191,47.567L87.154,47.414L87.119,47.259L87.084,47.104L87.05,46.947L87.018,46.79L86.986,46.631L86.955,46.472L86.925,46.312L86.896,46.15L86.868,45.988L86.841,45.825L86.815,45.661L86.79,45.496L86.766,45.331L86.743,45.164L86.721,44.997L86.699,44.829L86.679,44.66L86.66,44.49L86.642,44.32L86.625,44.149L86.609,43.977L86.595,43.804L86.581,43.631L86.568,43.457L86.556,43.282L86.546,43.107L86.536,42.931L86.528,42.754L86.52,42.577L86.514,42.399L86.509,42.22L86.505,42.041L86.502,41.861L86.501,41.681L86.5,41.5L86.501,41.319L86.502,41.139L86.505,40.959L86.509,40.78L86.514,40.601L86.52,40.423L86.528,40.246L86.536,40.069L86.546,39.893L86.556,39.718L86.568,39.543L86.581,39.369L86.595,39.196L86.609,39.023L86.625,38.851L86.642,38.68L86.66,38.51L86.679,38.34L86.699,38.171L86.721,38.003L86.743,37.836L86.766,37.669L86.79,37.504L86.815,37.339L86.841,37.175L86.868,37.012L86.896,36.85L86.925,36.688L86.955,36.528L86.986,36.369L87.018,36.21L87.05,36.053L87.084,35.896L87.119,35.741L87.154,35.586L87.191,35.433L87.228,35.28L87.266,35.129L87.305,34.978L87.345,34.829L87.386,34.681L87.428,34.534L87.471,34.388L87.514,34.243L87.558,34.099L87.603,33.956L87.649,33.815L87.696,33.675L87.744,33.536L87.792,33.398L87.841,33.261L87.891,33.126L87.942,32.992L87.994,32.859L88.046,32.727L88.099,32.597L88.153,32.468L88.208,32.34L88.263,32.214L88.319,32.089L88.376,31.965L88.434,31.843L88.492,31.722L88.551,31.602L88.611,31.484L88.671,31.368L88.733,31.253L88.794,31.139L88.857,31.026L88.92,30.916L88.984,30.806L89.048,30.699L89.114,30.592L89.179,30.488L89.246,30.384L89.313,30.283L89.381,30.183L89.449,30.084L89.518,29.988L89.587,29.892L89.657,29.799L89.728,29.707L89.8,29.617L89.871,29.528L89.944,29.441L90.017,29.356L90.09,29.272L90.165,29.191L90.239,29.111L90.314,29.033L90.39,28.956L90.466,28.881L90.543,28.809L90.62,28.738L90.698,28.668L90.776,28.601L90.855,28.535L90.934,28.472L91.014,28.41L91.094,28.35L91.175,28.292L91.256,28.236L91.337,28.182L91.419,28.13L91.502,28.08L91.585,28.031L91.668,27.985L91.751,27.941L91.836,27.899L91.92,27.859L92.005,27.821L92.09,27.785L92.176,27.751L92.262,27.719L92.348,27.689L92.435,27.661L92.522,27.636L92.609,27.613L92.697,27.591L92.785,27.572L92.873,27.555L92.962,27.541L93.051,27.528L93.14,27.518L93.23,27.51L93.319,27.505L93.41,27.501L93.5,27.5L93.59,27.501ZM93.448,29.032L93.397,29.034L93.346,29.037L93.295,29.042L93.244,29.048L93.192,29.055L93.141,29.063L93.09,29.073L93.038,29.084L92.987,29.097L92.935,29.111L92.883,29.126L92.83,29.143L92.777,29.161L92.724,29.18L92.671,29.202L92.617,29.224L92.562,29.249L92.508,29.275L92.453,29.302L92.397,29.332L92.341,29.363L92.285,29.395L92.229,29.43L92.172,29.466L92.115,29.504L92.057,29.544L91.999,29.585L91.941,29.629L91.883,29.674L91.824,29.721L91.766,29.77L91.707,29.82L91.648,29.873L91.589,29.927L91.529,29.984L91.47,30.042L91.41,30.102L91.351,30.164L91.291,30.228L91.232,30.293L91.173,30.36L91.113,30.43L91.054,30.501L90.995,30.574L90.936,30.648L90.877,30.725L90.818,30.803L90.76,30.883L90.702,30.965L90.644,31.049L90.586,31.134L90.529,31.221L90.471,31.31L90.415,31.4L90.358,31.492L90.302,31.586L90.246,31.681L90.191,31.778L90.136,31.877L90.082,31.977L90.028,32.079L89.974,32.182L89.921,32.287L89.868,32.394L89.816,32.502L89.764,32.611L89.713,32.722L89.663,32.835L89.613,32.949L89.564,33.064L89.515,33.181L89.467,33.299L89.419,33.419L89.372,33.54L89.326,33.662L89.28,33.786L89.235,33.911L89.191,34.037L89.147,34.165L89.104,34.294L89.062,34.424L89.02,34.555L88.979,34.688L88.939,34.822L88.9,34.957L88.861,35.093L88.823,35.231L88.786,35.369L88.75,35.509L88.714,35.65L88.679,35.792L88.645,35.935L88.612,36.079L88.58,36.224L88.549,36.37L88.518,36.517L88.488,36.665L88.459,36.814L88.431,36.964L88.404,37.115L88.378,37.267L88.352,37.42L88.328,37.574L88.304,37.729L88.282,37.885L88.26,38.041L88.239,38.198L88.219,38.357L88.201,38.516L88.183,38.675L88.166,38.836L88.15,38.997L88.135,39.159L88.121,39.322L88.108,39.486L88.095,39.65L88.084,39.815L88.074,39.981L88.065,40.147L88.057,40.314L88.051,40.482L88.045,40.65L88.04,40.819L88.036,40.988L88.033,41.158L88.032,41.329L88.031,41.5L88.032,41.671L88.033,41.842L88.036,42.012L88.04,42.181L88.045,42.35L88.051,42.518L88.057,42.686L88.065,42.853L88.074,43.019L88.084,43.185L88.095,43.35L88.108,43.514L88.121,43.678L88.135,43.841L88.15,44.003L88.166,44.164L88.183,44.325L88.201,44.484L88.219,44.643L88.239,44.802L88.26,44.959L88.282,45.115L88.304,45.271L88.328,45.426L88.352,45.58L88.378,45.733L88.404,45.885L88.431,46.036L88.459,46.186L88.488,46.335L88.518,46.483L88.549,46.63L88.58,46.776L88.612,46.921L88.645,47.065L88.679,47.208L88.714,47.35L88.75,47.491L88.786,47.631L88.823,47.769L88.861,47.907L88.9,48.043L88.939,48.178L88.979,48.312L89.02,48.445L89.062,48.576L89.104,48.706L89.147,48.835L89.191,48.963L89.235,49.089L89.28,49.214L89.326,49.338L89.372,49.46L89.419,49.581L89.467,49.701L89.515,49.819L89.564,49.936L89.613,50.051L89.663,50.165L89.713,50.278L89.764,50.389L89.816,50.498L89.868,50.606L89.921,50.713L89.974,50.818L90.028,50.921L90.082,51.023L90.136,51.123L90.191,51.222L90.246,51.319L90.302,51.414L90.358,51.508L90.415,51.6L90.471,51.69L90.529,51.779L90.586,51.866L90.644,51.951L90.702,52.035L90.76,52.117L90.818,52.197L90.877,52.275L90.936,52.352L90.995,52.426L91.054,52.499L91.113,52.57L91.173,52.639L91.232,52.707L91.291,52.772L91.351,52.836L91.41,52.898L91.47,52.958L91.529,53.016L91.589,53.073L91.648,53.127L91.707,53.18L91.766,53.23L91.824,53.279L91.883,53.326L91.941,53.371L91.999,53.415L92.057,53.456L92.115,53.496L92.172,53.534L92.229,53.57L92.285,53.605L92.341,53.637L92.397,53.668L92.453,53.698L92.508,53.725L92.562,53.751L92.617,53.776L92.67,53.798L92.724,53.82L92.777,53.839L92.83,53.857L92.883,53.874L92.935,53.889L92.987,53.903L93.038,53.916L93.09,53.927L93.141,53.937L93.192,53.945L93.244,53.952L93.295,53.958L93.346,53.963L93.397,53.966L93.448,53.968L93.5,53.969L93.552,53.968L93.603,53.966L93.654,53.963L93.705,53.958L93.756,53.952L93.808,53.945L93.859,53.937L93.91,53.927L93.962,53.916L94.013,53.903L94.065,53.89L94.117,53.874L94.17,53.857L94.223,53.839L94.276,53.82L94.33,53.798L94.383,53.776L94.438,53.751L94.492,53.725L94.547,53.698L94.603,53.668L94.659,53.637L94.715,53.605L94.771,53.57L94.828,53.534L94.885,53.496L94.943,53.456L95.001,53.415L95.059,53.371L95.117,53.326L95.176,53.279L95.234,53.23L95.293,53.18L95.352,53.127L95.411,53.073L95.471,53.016L95.53,52.958L95.59,52.898L95.649,52.836L95.709,52.772L95.768,52.707L95.827,52.639L95.887,52.57L95.946,52.499L96.005,52.426L96.064,52.352L96.123,52.275L96.182,52.197L96.24,52.117L96.298,52.035L96.356,51.951L96.414,51.866L96.471,51.779L96.529,51.69L96.585,51.6L96.642,51.508L96.698,51.414L96.754,51.319L96.809,51.222L96.864,51.123L96.918,51.023L96.972,50.921L97.026,50.818L97.079,50.713L97.132,50.606L97.184,50.498L97.236,50.389L97.287,50.278L97.337,50.165L97.387,50.051L97.436,49.936L97.485,49.819L97.533,49.701L97.581,49.581L97.628,49.46L97.674,49.338L97.72,49.214L97.765,49.089L97.809,48.963L97.853,48.835L97.896,48.706L97.938,48.576L97.98,48.445L98.021,48.312L98.061,48.178L98.1,48.043L98.139,47.907L98.177,47.769L98.214,47.631L98.25,47.491L98.286,47.35L98.321,47.208L98.355,47.065L98.388,46.921L98.42,46.776L98.451,46.63L98.482,46.483L98.512,46.335L98.541,46.186L98.569,46.036L98.596,45.885L98.622,45.733L98.648,45.58L98.672,45.426L98.696,45.271L98.718,45.115L98.74,44.959L98.761,44.802L98.781,44.643L98.799,44.484L98.817,44.325L98.834,44.164L98.85,44.003L98.865,43.841L98.879,43.678L98.892,43.514L98.905,43.35L98.916,43.185L98.926,43.019L98.935,42.853L98.943,42.686L98.949,42.518L98.955,42.35L98.96,42.181L98.964,42.012L98.967,41.842L98.968,41.671L98.969,41.5L98.968,41.329L98.967,41.158L98.964,40.988L98.96,40.819L98.955,40.65L98.949,40.482L98.943,40.314L98.935,40.147L98.926,39.981L98.916,39.815L98.905,39.65L98.892,39.486L98.879,39.322L98.865,39.159L98.85,38.997L98.834,38.836L98.817,38.675L98.799,38.516L98.781,38.357L98.761,38.198L98.74,38.041L98.718,37.885L98.696,37.729L98.672,37.574L98.648,37.42L98.622,37.267L98.596,37.115L98.569,36.964L98.541,36.814L98.512,36.665L98.482,36.517L98.451,36.37L98.42,36.224L98.388,36.079L98.355,35.935L98.321,35.792L98.286,35.65L98.25,35.509L98.214,35.369L98.177,35.231L98.139,35.093L98.1,34.957L98.061,34.822L98.021,34.688L97.98,34.555L97.938,34.424L97.896,34.294L97.853,34.165L97.809,34.037L97.765,33.911L97.72,33.786L97.674,33.662L97.628,33.54L97.581,33.419L97.533,33.299L97.485,33.181L97.436,33.064L97.387,32.949L97.337,32.835L97.287,32.722L97.236,32.611L97.184,32.502L97.132,32.394L97.079,32.287L97.026,32.182L96.972,32.079L96.918,31.977L96.864,31.877L96.809,31.778L96.754,31.681L96.698,31.586L96.642,31.492L96.585,31.4L96.529,31.31L96.471,31.221L96.414,31.134L96.356,31.049L96.298,30.965L96.24,30.883L96.182,30.803L96.123,30.725L96.064,30.648L96.005,30.574L95.946,30.501L95.887,30.43L95.827,30.36L95.768,30.293L95.709,30.228L95.649,30.164L95.59,30.102L95.53,30.042L95.471,29.984L95.411,29.927L95.352,29.873L95.293,29.82L95.234,29.77L95.176,29.721L95.117,29.674L95.059,29.629L95.001,29.585L94.943,29.544L94.885,29.504L94.828,29.466L94.771,29.43L94.715,29.395L94.659,29.363L94.603,29.332L94.547,29.302L94.492,29.275L94.438,29.249L94.383,29.224L94.329,29.202L94.276,29.18L94.223,29.161L94.17,29.143L94.117,29.126L94.065,29.111L94.013,29.097L93.962,29.084L93.91,29.073L93.859,29.063L93.808,29.055L93.756,29.048L93.705,29.042L93.654,29.037L93.603,29.034L93.552,29.032L93.5,29.031L93.448,29.032Z"/>
            </g>
            <g transform="matrix(2.61224,0,0,2.61224,-225.959,-20.1224)">
                <ellipse cx="93.5" cy="41.5" rx="7" ry="14" style="fill:rgb(242,242,242);"/>
                <path d="M93.59,27.501L93.681,27.505L93.77,27.51L93.86,27.518L93.949,27.528L94.038,27.541L94.127,27.555L94.215,27.572L94.303,27.591L94.391,27.613L94.478,27.636L94.565,27.661L94.652,27.689L94.738,27.719L94.824,27.751L94.91,27.785L94.995,27.821L95.08,27.859L95.164,27.899L95.249,27.941L95.332,27.985L95.415,28.031L95.498,28.08L95.581,28.13L95.663,28.182L95.744,28.236L95.825,28.292L95.906,28.35L95.986,28.41L96.066,28.472L96.145,28.535L96.224,28.601L96.302,28.668L96.38,28.738L96.457,28.809L96.534,28.881L96.61,28.956L96.686,29.033L96.761,29.111L96.835,29.191L96.91,29.272L96.983,29.356L97.056,29.441L97.129,29.528L97.2,29.617L97.272,29.707L97.343,29.799L97.413,29.892L97.482,29.988L97.551,30.084L97.619,30.183L97.687,30.283L97.754,30.384L97.821,30.488L97.886,30.592L97.952,30.699L98.016,30.806L98.08,30.916L98.143,31.026L98.206,31.139L98.267,31.253L98.329,31.368L98.389,31.484L98.449,31.602L98.508,31.722L98.566,31.843L98.624,31.965L98.681,32.089L98.737,32.214L98.792,32.34L98.847,32.468L98.901,32.597L98.954,32.727L99.006,32.859L99.058,32.992L99.109,33.126L99.159,33.261L99.208,33.398L99.256,33.536L99.304,33.675L99.351,33.815L99.397,33.956L99.442,34.099L99.486,34.243L99.529,34.388L99.572,34.534L99.614,34.681L99.655,34.829L99.695,34.978L99.734,35.129L99.772,35.28L99.809,35.433L99.846,35.586L99.881,35.741L99.916,35.896L99.95,36.053L99.982,36.21L100.014,36.369L100.045,36.528L100.075,36.688L100.104,36.85L100.132,37.012L100.159,37.175L100.185,37.339L100.21,37.504L100.234,37.669L100.257,37.836L100.279,38.003L100.301,38.171L100.321,38.34L100.34,38.51L100.358,38.68L100.375,38.851L100.391,39.023L100.405,39.196L100.419,39.369L100.432,39.543L100.444,39.718L100.454,39.893L100.464,40.069L100.472,40.246L100.48,40.423L100.486,40.601L100.491,40.78L100.495,40.959L100.498,41.139L100.499,41.319L100.5,41.5L100.499,41.681L100.498,41.861L100.495,42.041L100.491,42.22L100.486,42.399L100.48,42.577L100.472,42.754L100.464,42.931L100.454,43.107L100.444,43.282L100.432,43.457L100.419,43.631L100.405,43.804L100.391,43.977L100.375,44.149L100.358,44.32L100.34,44.49L100.321,44.66L100.301,44.829L100.279,44.997L100.257,45.164L100.234,45.331L100.21,45.496L100.185,45.661L100.159,45.825L100.132,45.988L100.104,46.15L100.075,46.312L100.045,46.472L100.014,46.631L99.982,46.79L99.95,46.947L99.916,47.104L99.881,47.259L99.846,47.414L99.809,47.567L99.772,47.72L99.734,47.871L99.695,48.022L99.655,48.171L99.614,48.319L99.572,48.466L99.529,48.612L99.486,48.757L99.442,48.901L99.397,49.044L99.351,49.185L99.304,49.325L99.256,49.464L99.208,49.602L99.159,49.739L99.109,49.874L99.058,50.008L99.006,50.141L98.954,50.273L98.901,50.403L98.847,50.532L98.792,50.66L98.737,50.786L98.681,50.911L98.624,51.035L98.566,51.157L98.508,51.278L98.449,51.398L98.389,51.516L98.329,51.632L98.267,51.747L98.206,51.861L98.143,51.974L98.08,52.084L98.016,52.194L97.952,52.301L97.886,52.408L97.821,52.512L97.754,52.616L97.687,52.717L97.619,52.817L97.551,52.916L97.482,53.012L97.413,53.108L97.343,53.201L97.272,53.293L97.2,53.383L97.129,53.472L97.056,53.559L96.983,53.644L96.91,53.728L96.835,53.809L96.761,53.889L96.686,53.967L96.61,54.044L96.534,54.119L96.457,54.191L96.38,54.262L96.302,54.332L96.224,54.399L96.145,54.465L96.066,54.528L95.986,54.59L95.906,54.65L95.825,54.708L95.744,54.764L95.663,54.818L95.581,54.87L95.498,54.92L95.415,54.969L95.332,55.015L95.249,55.059L95.164,55.101L95.08,55.141L94.995,55.179L94.91,55.215L94.824,55.249L94.738,55.281L94.652,55.311L94.565,55.339L94.478,55.364L94.391,55.387L94.303,55.409L94.215,55.428L94.127,55.445L94.038,55.459L93.949,55.472L93.86,55.482L93.77,55.49L93.681,55.495L93.59,55.499L93.5,55.5L93.41,55.499L93.319,55.495L93.23,55.49L93.14,55.482L93.051,55.472L92.962,55.459L92.873,55.445L92.785,55.428L92.697,55.409L92.609,55.387L92.522,55.364L92.435,55.339L92.348,55.311L92.262,55.281L92.176,55.249L92.09,55.215L92.005,55.179L91.92,55.141L91.836,55.101L91.751,55.059L91.668,55.015L91.585,54.969L91.502,54.92L91.419,54.87L91.337,54.818L91.256,54.764L91.175,54.708L91.094,54.65L91.014,54.59L90.934,54.528L90.855,54.465L90.776,54.399L90.698,54.332L90.62,54.262L90.543,54.191L90.466,54.119L90.39,54.044L90.314,53.967L90.239,53.889L90.165,53.809L90.09,53.728L90.017,53.644L89.944,53.559L89.871,53.472L89.8,53.383L89.728,53.293L89.657,53.201L89.587,53.108L89.518,53.012L89.449,52.916L89.381,52.817L89.313,52.717L89.246,52.616L89.179,52.512L89.114,52.408L89.048,52.301L88.984,52.194L88.92,52.084L88.857,51.974L88.794,51.861L88.733,51.747L88.671,51.632L88.611,51.516L88.551,51.398L88.492,51.278L88.434,51.157L88.376,51.035L88.319,50.911L88.263,50.786L88.208,50.66L88.153,50.532L88.099,50.403L88.046,50.273L87.994,50.141L87.942,50.008L87.891,49.874L87.841,49.739L87.792,49.602L87.744,49.464L87.696,49.325L87.649,49.185L87.603,49.044L87.558,48.901L87.514,48.757L87.471,48.612L87.428,48.466L87.386,48.319L87.345,48.171L87.305,48.022L87.266,47.871L87.228,47.72L87.191,47.567L87.154,47.414L87.119,47.259L87.084,47.104L87.05,46.947L87.018,46.79L86.986,46.631L86.955,46.472L86.925,46.312L86.896,46.15L86.868,45.988L86.841,45.825L86.815,45.661L86.79,45.496L86.766,45.331L86.743,45.164L86.721,44.997L86.699,44.829L86.679,44.66L86.66,44.49L86.642,44.32L86.625,44.149L86.609,43.977L86.595,43.804L86.581,43.631L86.568,43.457L86.556,43.282L86.546,43.107L86.536,42.931L86.528,42.754L86.52,42.577L86.514,42.399L86.509,42.22L86.505,42.041L86.502,41.861L86.501,41.681L86.5,41.5L86.501,41.319L86.502,41.139L86.505,40.959L86.509,40.78L86.514,40.601L86.52,40.423L86.528,40.246L86.536,40.069L86.546,39.893L86.556,39.718L86.568,39.543L86.581,39.369L86.595,39.196L86.609,39.023L86.625,38.851L86.642,38.68L86.66,38.51L86.679,38.34L86.699,38.171L86.721,38.003L86.743,37.836L86.766,37.669L86.79,37.504L86.815,37.339L86.841,37.175L86.868,37.012L86.896,36.85L86.925,36.688L86.955,36.528L86.986,36.369L87.018,36.21L87.05,36.053L87.084,35.896L87.119,35.741L87.154,35.586L87.191,35.433L87.228,35.28L87.266,35.129L87.305,34.978L87.345,34.829L87.386,34.681L87.428,34.534L87.471,34.388L87.514,34.243L87.558,34.099L87.603,33.956L87.649,33.815L87.696,33.675L87.744,33.536L87.792,33.398L87.841,33.261L87.891,33.126L87.942,32.992L87.994,32.859L88.046,32.727L88.099,32.597L88.153,32.468L88.208,32.34L88.263,32.214L88.319,32.089L88.376,31.965L88.434,31.843L88.492,31.722L88.551,31.602L88.611,31.484L88.671,31.368L88.733,31.253L88.794,31.139L88.857,31.026L88.92,30.916L88.984,30.806L89.048,30.699L89.114,30.592L89.179,30.488L89.246,30.384L89.313,30.283L89.381,30.183L89.449,30.084L89.518,29.988L89.587,29.892L89.657,29.799L89.728,29.707L89.8,29.617L89.871,29.528L89.944,29.441L90.017,29.356L90.09,29.272L90.165,29.191L90.239,29.111L90.314,29.033L90.39,28.956L90.466,28.881L90.543,28.809L90.62,28.738L90.698,28.668L90.776,28.601L90.855,28.535L90.934,28.472L91.014,28.41L91.094,28.35L91.175,28.292L91.256,28.236L91.337,28.182L91.419,28.13L91.502,28.08L91.585,28.031L91.668,27.985L91.751,27.941L91.836,27.899L91.92,27.859L92.005,27.821L92.09,27.785L92.176,27.751L92.262,27.719L92.348,27.689L92.435,27.661L92.522,27.636L92.609,27.613L92.697,27.591L92.785,27.572L92.873,27.555L92.962,27.541L93.051,27.528L93.14,27.518L93.23,27.51L93.319,27.505L93.41,27.501L93.5,27.5L93.59,27.501ZM93.448,29.032L93.397,29.034L93.346,29.037L93.295,29.042L93.244,29.048L93.192,29.055L93.141,29.063L93.09,29.073L93.038,29.084L92.987,29.097L92.935,29.111L92.883,29.126L92.83,29.143L92.777,29.161L92.724,29.18L92.671,29.202L92.617,29.224L92.562,29.249L92.508,29.275L92.453,29.302L92.397,29.332L92.341,29.363L92.285,29.395L92.229,29.43L92.172,29.466L92.115,29.504L92.057,29.544L91.999,29.585L91.941,29.629L91.883,29.674L91.824,29.721L91.766,29.77L91.707,29.82L91.648,29.873L91.589,29.927L91.529,29.984L91.47,30.042L91.41,30.102L91.351,30.164L91.291,30.228L91.232,30.293L91.173,30.36L91.113,30.43L91.054,30.501L90.995,30.574L90.936,30.648L90.877,30.725L90.818,30.803L90.76,30.883L90.702,30.965L90.644,31.049L90.586,31.134L90.529,31.221L90.471,31.31L90.415,31.4L90.358,31.492L90.302,31.586L90.246,31.681L90.191,31.778L90.136,31.877L90.082,31.977L90.028,32.079L89.974,32.182L89.921,32.287L89.868,32.394L89.816,32.502L89.764,32.611L89.713,32.722L89.663,32.835L89.613,32.949L89.564,33.064L89.515,33.181L89.467,33.299L89.419,33.419L89.372,33.54L89.326,33.662L89.28,33.786L89.235,33.911L89.191,34.037L89.147,34.165L89.104,34.294L89.062,34.424L89.02,34.555L88.979,34.688L88.939,34.822L88.9,34.957L88.861,35.093L88.823,35.231L88.786,35.369L88.75,35.509L88.714,35.65L88.679,35.792L88.645,35.935L88.612,36.079L88.58,36.224L88.549,36.37L88.518,36.517L88.488,36.665L88.459,36.814L88.431,36.964L88.404,37.115L88.378,37.267L88.352,37.42L88.328,37.574L88.304,37.729L88.282,37.885L88.26,38.041L88.239,38.198L88.219,38.357L88.201,38.516L88.183,38.675L88.166,38.836L88.15,38.997L88.135,39.159L88.121,39.322L88.108,39.486L88.095,39.65L88.084,39.815L88.074,39.981L88.065,40.147L88.057,40.314L88.051,40.482L88.045,40.65L88.04,40.819L88.036,40.988L88.033,41.158L88.032,41.329L88.031,41.5L88.032,41.671L88.033,41.842L88.036,42.012L88.04,42.181L88.045,42.35L88.051,42.518L88.057,42.686L88.065,42.853L88.074,43.019L88.084,43.185L88.095,43.35L88.108,43.514L88.121,43.678L88.135,43.841L88.15,44.003L88.166,44.164L88.183,44.325L88.201,44.484L88.219,44.643L88.239,44.802L88.26,44.959L88.282,45.115L88.304,45.271L88.328,45.426L88.352,45.58L88.378,45.733L88.404,45.885L88.431,46.036L88.459,46.186L88.488,46.335L88.518,46.483L88.549,46.63L88.58,46.776L88.612,46.921L88.645,47.065L88.679,47.208L88.714,47.35L88.75,47.491L88.786,47.631L88.823,47.769L88.861,47.907L88.9,48.043L88.939,48.178L88.979,48.312L89.02,48.445L89.062,48.576L89.104,48.706L89.147,48.835L89.191,48.963L89.235,49.089L89.28,49.214L89.326,49.338L89.372,49.46L89.419,49.581L89.467,49.701L89.515,49.819L89.564,49.936L89.613,50.051L89.663,50.165L89.713,50.278L89.764,50.389L89.816,50.498L89.868,50.606L89.921,50.713L89.974,50.818L90.028,50.921L90.082,51.023L90.136,51.123L90.191,51.222L90.246,51.319L90.302,51.414L90.358,51.508L90.415,51.6L90.471,51.69L90.529,51.779L90.586,51.866L90.644,51.951L90.702,52.035L90.76,52.117L90.818,52.197L90.877,52.275L90.936,52.352L90.995,52.426L91.054,52.499L91.113,52.57L91.173,52.639L91.232,52.707L91.291,52.772L91.351,52.836L91.41,52.898L91.47,52.958L91.529,53.016L91.589,53.073L91.648,53.127L91.707,53.18L91.766,53.23L91.824,53.279L91.883,53.326L91.941,53.371L91.999,53.415L92.057,53.456L92.115,53.496L92.172,53.534L92.229,53.57L92.285,53.605L92.341,53.637L92.397,53.668L92.453,53.698L92.508,53.725L92.562,53.751L92.617,53.776L92.67,53.798L92.724,53.82L92.777,53.839L92.83,53.857L92.883,53.874L92.935,53.89L92.987,53.903L93.038,53.916L93.09,53.927L93.141,53.937L93.192,53.945L93.244,53.952L93.295,53.958L93.346,53.963L93.397,53.966L93.448,53.968L93.5,53.969L93.552,53.968L93.603,53.966L93.654,53.963L93.705,53.958L93.756,53.952L93.808,53.945L93.859,53.937L93.91,53.927L93.962,53.916L94.013,53.903L94.065,53.89L94.117,53.874L94.17,53.857L94.223,53.839L94.276,53.82L94.33,53.798L94.383,53.776L94.438,53.751L94.492,53.725L94.547,53.698L94.603,53.668L94.659,53.637L94.715,53.605L94.771,53.57L94.828,53.534L94.885,53.496L94.943,53.456L95.001,53.415L95.059,53.371L95.117,53.326L95.176,53.279L95.234,53.23L95.293,53.18L95.352,53.127L95.411,53.073L95.471,53.016L95.53,52.958L95.59,52.898L95.649,52.836L95.709,52.772L95.768,52.707L95.827,52.639L95.887,52.57L95.946,52.499L96.005,52.426L96.064,52.352L96.123,52.275L96.182,52.197L96.24,52.117L96.298,52.035L96.356,51.951L96.414,51.866L96.471,51.779L96.529,51.69L96.585,51.6L96.642,51.508L96.698,51.414L96.754,51.319L96.809,51.222L96.864,51.123L96.918,51.023L96.972,50.921L97.026,50.818L97.079,50.713L97.132,50.606L97.184,50.498L97.236,50.389L97.287,50.278L97.337,50.165L97.387,50.051L97.436,49.936L97.485,49.819L97.533,49.701L97.581,49.581L97.628,49.46L97.674,49.338L97.72,49.214L97.765,49.089L97.809,48.963L97.853,48.835L97.896,48.706L97.938,48.576L97.98,48.445L98.021,48.312L98.061,48.178L98.1,48.043L98.139,47.907L98.177,47.769L98.214,47.631L98.25,47.491L98.286,47.35L98.321,47.208L98.355,47.065L98.388,46.921L98.42,46.776L98.451,46.63L98.482,46.483L98.512,46.335L98.541,46.186L98.569,46.036L98.596,45.885L98.622,45.733L98.648,45.58L98.672,45.426L98.696,45.271L98.718,45.115L98.74,44.959L98.761,44.802L98.781,44.643L98.799,44.484L98.817,44.325L98.834,44.164L98.85,44.003L98.865,43.841L98.879,43.678L98.892,43.514L98.905,43.35L98.916,43.185L98.926,43.019L98.935,42.853L98.943,42.686L98.949,42.518L98.955,42.35L98.96,42.181L98.964,42.012L98.967,41.842L98.968,41.671L98.969,41.5L98.968,41.329L98.967,41.158L98.964,40.988L98.96,40.819L98.955,40.65L98.949,40.482L98.943,40.314L98.935,40.147L98.926,39.981L98.916,39.815L98.905,39.65L98.892,39.486L98.879,39.322L98.865,39.159L98.85,38.997L98.834,38.836L98.817,38.675L98.799,38.516L98.781,38.357L98.761,38.198L98.74,38.041L98.718,37.885L98.696,37.729L98.672,37.574L98.648,37.42L98.622,37.267L98.596,37.115L98.569,36.964L98.541,36.814L98.512,36.665L98.482,36.517L98.451,36.37L98.42,36.224L98.388,36.079L98.355,35.935L98.321,35.792L98.286,35.65L98.25,35.509L98.214,35.369L98.177,35.231L98.139,35.093L98.1,34.957L98.061,34.822L98.021,34.688L97.98,34.555L97.938,34.424L97.896,34.294L97.853,34.165L97.809,34.037L97.765,33.911L97.72,33.786L97.674,33.662L97.628,33.54L97.581,33.419L97.533,33.299L97.485,33.181L97.436,33.064L97.387,32.949L97.337,32.835L97.287,32.722L97.236,32.611L97.184,32.502L97.132,32.394L97.079,32.287L97.026,32.182L96.972,32.079L96.918,31.977L96.864,31.877L96.809,31.778L96.754,31.681L96.698,31.586L96.642,31.492L96.585,31.4L96.529,31.31L96.471,31.221L96.414,31.134L96.356,31.049L96.298,30.965L96.24,30.883L96.182,30.803L96.123,30.725L96.064,30.648L96.005,30.574L95.946,30.501L95.887,30.43L95.827,30.36L95.768,30.293L95.709,30.228L95.649,30.164L95.59,30.102L95.53,30.042L95.471,29.984L95.411,29.927L95.352,29.873L95.293,29.82L95.234,29.77L95.176,29.721L95.117,29.674L95.059,29.629L95.001,29.585L94.943,29.544L94.885,29.504L94.828,29.466L94.771,29.43L94.715,29.395L94.659,29.363L94.603,29.332L94.547,29.302L94.492,29.275L94.438,29.249L94.383,29.224L94.329,29.202L94.276,29.18L94.223,29.161L94.17,29.143L94.117,29.126L94.065,29.111L94.013,29.097L93.962,29.084L93.91,29.073L93.859,29.063L93.808,29.055L93.756,29.048L93.705,29.042L93.654,29.037L93.603,29.034L93.552,29.032L93.5,29.031L93.448,29.032Z"/>
            </g>
            <g transform="matrix(2.61224,0,0,2.61224,-142.367,-20.1224)">
                <ellipse cx="93.5" cy="41.5" rx="7" ry="14" style="fill:rgb(242,242,242);"/>
                <path d="M93.59,27.501L93.681,27.505L93.77,27.51L93.86,27.518L93.949,27.528L94.038,27.541L94.127,27.555L94.215,27.572L94.303,27.591L94.391,27.613L94.478,27.636L94.565,27.661L94.652,27.689L94.738,27.719L94.824,27.751L94.91,27.785L94.995,27.821L95.08,27.859L95.164,27.899L95.249,27.941L95.332,27.985L95.415,28.031L95.498,28.08L95.581,28.13L95.663,28.182L95.744,28.236L95.825,28.292L95.906,28.35L95.986,28.41L96.066,28.472L96.145,28.535L96.224,28.601L96.302,28.668L96.38,28.738L96.457,28.809L96.534,28.881L96.61,28.956L96.686,29.033L96.761,29.111L96.835,29.191L96.91,29.272L96.983,29.356L97.056,29.441L97.129,29.528L97.2,29.617L97.272,29.707L97.343,29.799L97.413,29.892L97.482,29.988L97.551,30.084L97.619,30.183L97.687,30.283L97.754,30.384L97.821,30.488L97.886,30.592L97.952,30.699L98.016,30.806L98.08,30.916L98.143,31.026L98.206,31.139L98.267,31.253L98.329,31.368L98.389,31.484L98.449,31.602L98.508,31.722L98.566,31.843L98.624,31.965L98.681,32.089L98.737,32.214L98.792,32.34L98.847,32.468L98.901,32.597L98.954,32.727L99.006,32.859L99.058,32.992L99.109,33.126L99.159,33.261L99.208,33.398L99.256,33.536L99.304,33.675L99.351,33.815L99.397,33.956L99.442,34.099L99.486,34.243L99.529,34.388L99.572,34.534L99.614,34.681L99.655,34.829L99.695,34.978L99.734,35.129L99.772,35.28L99.809,35.433L99.846,35.586L99.881,35.741L99.916,35.896L99.95,36.053L99.982,36.21L100.014,36.369L100.045,36.528L100.075,36.688L100.104,36.85L100.132,37.012L100.159,37.175L100.185,37.339L100.21,37.504L100.234,37.669L100.257,37.836L100.279,38.003L100.301,38.171L100.321,38.34L100.34,38.51L100.358,38.68L100.375,38.851L100.391,39.023L100.405,39.196L100.419,39.369L100.432,39.543L100.444,39.718L100.454,39.893L100.464,40.069L100.472,40.246L100.48,40.423L100.486,40.601L100.491,40.78L100.495,40.959L100.498,41.139L100.499,41.319L100.5,41.5L100.499,41.681L100.498,41.861L100.495,42.041L100.491,42.22L100.486,42.399L100.48,42.577L100.472,42.754L100.464,42.931L100.454,43.107L100.444,43.282L100.432,43.457L100.419,43.631L100.405,43.804L100.391,43.977L100.375,44.149L100.358,44.32L100.34,44.49L100.321,44.66L100.301,44.829L100.279,44.997L100.257,45.164L100.234,45.331L100.21,45.496L100.185,45.661L100.159,45.825L100.132,45.988L100.104,46.15L100.075,46.312L100.045,46.472L100.014,46.631L99.982,46.79L99.95,46.947L99.916,47.104L99.881,47.259L99.846,47.414L99.809,47.567L99.772,47.72L99.734,47.871L99.695,48.022L99.655,48.171L99.614,48.319L99.572,48.466L99.529,48.612L99.486,48.757L99.442,48.901L99.397,49.044L99.351,49.185L99.304,49.325L99.256,49.464L99.208,49.602L99.159,49.739L99.109,49.874L99.058,50.008L99.006,50.141L98.954,50.273L98.901,50.403L98.847,50.532L98.792,50.66L98.737,50.786L98.681,50.911L98.624,51.035L98.566,51.157L98.508,51.278L98.449,51.398L98.389,51.516L98.329,51.632L98.267,51.747L98.206,51.861L98.143,51.974L98.08,52.084L98.016,52.194L97.952,52.301L97.886,52.408L97.821,52.512L97.754,52.616L97.687,52.717L97.619,52.817L97.551,52.916L97.482,53.012L97.413,53.108L97.343,53.201L97.272,53.293L97.2,53.383L97.129,53.472L97.056,53.559L96.983,53.644L96.91,53.728L96.835,53.809L96.761,53.889L96.686,53.967L96.61,54.044L96.534,54.119L96.457,54.191L96.38,54.262L96.302,54.332L96.224,54.399L96.145,54.465L96.066,54.528L95.986,54.59L95.906,54.65L95.825,54.708L95.744,54.764L95.663,54.818L95.581,54.87L95.498,54.92L95.415,54.969L95.332,55.015L95.249,55.059L95.164,55.101L95.08,55.141L94.995,55.179L94.91,55.215L94.824,55.249L94.738,55.281L94.652,55.311L94.565,55.339L94.478,55.364L94.391,55.387L94.303,55.409L94.215,55.428L94.127,55.445L94.038,55.459L93.949,55.472L93.86,55.482L93.77,55.49L93.681,55.495L93.59,55.499L93.5,55.5L93.41,55.499L93.319,55.495L93.23,55.49L93.14,55.482L93.051,55.472L92.962,55.459L92.873,55.445L92.785,55.428L92.697,55.409L92.609,55.387L92.522,55.364L92.435,55.339L92.348,55.311L92.262,55.281L92.176,55.249L92.09,55.215L92.005,55.179L91.92,55.141L91.836,55.101L91.751,55.059L91.668,55.015L91.585,54.969L91.502,54.92L91.419,54.87L91.337,54.818L91.256,54.764L91.175,54.708L91.094,54.65L91.014,54.59L90.934,54.528L90.855,54.465L90.776,54.399L90.698,54.332L90.62,54.262L90.543,54.191L90.466,54.119L90.39,54.044L90.314,53.967L90.239,53.889L90.165,53.809L90.09,53.728L90.017,53.644L89.944,53.559L89.871,53.472L89.8,53.383L89.728,53.293L89.657,53.201L89.587,53.108L89.518,53.012L89.449,52.916L89.381,52.817L89.313,52.717L89.246,52.616L89.179,52.512L89.114,52.408L89.048,52.301L88.984,52.194L88.92,52.084L88.857,51.974L88.794,51.861L88.733,51.747L88.671,51.632L88.611,51.516L88.551,51.398L88.492,51.278L88.434,51.157L88.376,51.035L88.319,50.911L88.263,50.786L88.208,50.66L88.153,50.532L88.099,50.403L88.046,50.273L87.994,50.141L87.942,50.008L87.891,49.874L87.841,49.739L87.792,49.602L87.744,49.464L87.696,49.325L87.649,49.185L87.603,49.044L87.558,48.901L87.514,48.757L87.471,48.612L87.428,48.466L87.386,48.319L87.345,48.171L87.305,48.022L87.266,47.871L87.228,47.72L87.191,47.567L87.154,47.414L87.119,47.259L87.084,47.104L87.05,46.947L87.018,46.79L86.986,46.631L86.955,46.472L86.925,46.312L86.896,46.15L86.868,45.988L86.841,45.825L86.815,45.661L86.79,45.496L86.766,45.331L86.743,45.164L86.721,44.997L86.699,44.829L86.679,44.66L86.66,44.49L86.642,44.32L86.625,44.149L86.609,43.977L86.595,43.804L86.581,43.631L86.568,43.457L86.556,43.282L86.546,43.107L86.536,42.931L86.528,42.754L86.52,42.577L86.514,42.399L86.509,42.22L86.505,42.041L86.502,41.861L86.501,41.681L86.5,41.5L86.501,41.319L86.502,41.139L86.505,40.959L86.509,40.78L86.514,40.601L86.52,40.423L86.528,40.246L86.536,40.069L86.546,39.893L86.556,39.718L86.568,39.543L86.581,39.369L86.595,39.196L86.609,39.023L86.625,38.851L86.642,38.68L86.66,38.51L86.679,38.34L86.699,38.171L86.721,38.003L86.743,37.836L86.766,37.669L86.79,37.504L86.815,37.339L86.841,37.175L86.868,37.012L86.896,36.85L86.925,36.688L86.955,36.528L86.986,36.369L87.018,36.21L87.05,36.053L87.084,35.896L87.119,35.741L87.154,35.586L87.191,35.433L87.228,35.28L87.266,35.129L87.305,34.978L87.345,34.829L87.386,34.681L87.428,34.534L87.471,34.388L87.514,34.243L87.558,34.099L87.603,33.956L87.649,33.815L87.696,33.675L87.744,33.536L87.792,33.398L87.841,33.261L87.891,33.126L87.942,32.992L87.994,32.859L88.046,32.727L88.099,32.597L88.153,32.468L88.208,32.34L88.263,32.214L88.319,32.089L88.376,31.965L88.434,31.843L88.492,31.722L88.551,31.602L88.611,31.484L88.671,31.368L88.733,31.253L88.794,31.139L88.857,31.026L88.92,30.916L88.984,30.806L89.048,30.699L89.114,30.592L89.179,30.488L89.246,30.384L89.313,30.283L89.381,30.183L89.449,30.084L89.518,29.988L89.587,29.892L89.657,29.799L89.728,29.707L89.8,29.617L89.871,29.528L89.944,29.441L90.017,29.356L90.09,29.272L90.165,29.191L90.239,29.111L90.314,29.033L90.39,28.956L90.466,28.881L90.543,28.809L90.62,28.738L90.698,28.668L90.776,28.601L90.855,28.535L90.934,28.472L91.014,28.41L91.094,28.35L91.175,28.292L91.256,28.236L91.337,28.182L91.419,28.13L91.502,28.08L91.585,28.031L91.668,27.985L91.751,27.941L91.836,27.899L91.92,27.859L92.005,27.821L92.09,27.785L92.176,27.751L92.262,27.719L92.348,27.689L92.435,27.661L92.522,27.636L92.609,27.613L92.697,27.591L92.785,27.572L92.873,27.555L92.962,27.541L93.051,27.528L93.14,27.518L93.23,27.51L93.319,27.505L93.41,27.501L93.5,27.5L93.59,27.501ZM93.448,29.032L93.397,29.034L93.346,29.037L93.295,29.042L93.244,29.048L93.192,29.055L93.141,29.063L93.09,29.073L93.038,29.084L92.987,29.097L92.935,29.111L92.883,29.126L92.83,29.143L92.777,29.161L92.724,29.18L92.671,29.202L92.617,29.224L92.562,29.249L92.508,29.275L92.453,29.302L92.397,29.332L92.341,29.363L92.285,29.395L92.229,29.43L92.172,29.466L92.115,29.504L92.057,29.544L91.999,29.585L91.941,29.629L91.883,29.674L91.824,29.721L91.766,29.77L91.707,29.82L91.648,29.873L91.589,29.927L91.529,29.984L91.47,30.042L91.41,30.102L91.351,30.164L91.291,30.228L91.232,30.293L91.173,30.36L91.113,30.43L91.054,30.501L90.995,30.574L90.936,30.648L90.877,30.725L90.818,30.803L90.76,30.883L90.702,30.965L90.644,31.048L90.586,31.134L90.529,31.221L90.471,31.309L90.415,31.4L90.358,31.492L90.302,31.586L90.246,31.681L90.191,31.778L90.136,31.877L90.082,31.977L90.028,32.079L89.974,32.182L89.921,32.287L89.868,32.394L89.816,32.502L89.765,32.611L89.713,32.722L89.663,32.835L89.613,32.949L89.564,33.064L89.515,33.181L89.467,33.299L89.419,33.419L89.372,33.54L89.326,33.662L89.28,33.786L89.235,33.911L89.191,34.037L89.147,34.165L89.104,34.294L89.062,34.424L89.02,34.555L88.979,34.688L88.939,34.822L88.9,34.957L88.861,35.093L88.823,35.231L88.786,35.369L88.75,35.509L88.714,35.65L88.679,35.792L88.645,35.935L88.612,36.079L88.58,36.224L88.549,36.37L88.518,36.517L88.488,36.665L88.459,36.814L88.431,36.964L88.404,37.115L88.378,37.267L88.352,37.42L88.328,37.574L88.304,37.729L88.282,37.885L88.26,38.041L88.239,38.198L88.219,38.357L88.201,38.516L88.183,38.675L88.166,38.836L88.15,38.997L88.135,39.159L88.121,39.322L88.108,39.486L88.095,39.65L88.084,39.815L88.074,39.981L88.065,40.147L88.057,40.314L88.051,40.482L88.045,40.65L88.04,40.819L88.036,40.988L88.033,41.158L88.032,41.329L88.031,41.5L88.032,41.671L88.033,41.842L88.036,42.012L88.04,42.181L88.045,42.35L88.051,42.518L88.057,42.686L88.065,42.853L88.074,43.019L88.084,43.185L88.095,43.35L88.108,43.514L88.121,43.678L88.135,43.841L88.15,44.003L88.166,44.164L88.183,44.325L88.201,44.484L88.219,44.643L88.239,44.802L88.26,44.959L88.282,45.115L88.304,45.271L88.328,45.426L88.352,45.58L88.378,45.733L88.404,45.885L88.431,46.036L88.459,46.186L88.488,46.335L88.518,46.483L88.549,46.63L88.58,46.776L88.612,46.921L88.645,47.065L88.679,47.208L88.714,47.35L88.75,47.491L88.786,47.631L88.823,47.769L88.861,47.907L88.9,48.043L88.939,48.178L88.979,48.312L89.02,48.445L89.062,48.576L89.104,48.706L89.147,48.835L89.191,48.963L89.235,49.089L89.28,49.214L89.326,49.338L89.372,49.46L89.419,49.581L89.467,49.701L89.515,49.819L89.564,49.936L89.613,50.051L89.663,50.165L89.713,50.278L89.765,50.389L89.816,50.498L89.868,50.606L89.921,50.713L89.974,50.818L90.028,50.921L90.082,51.023L90.136,51.123L90.191,51.222L90.246,51.319L90.302,51.414L90.358,51.508L90.415,51.6L90.471,51.69L90.529,51.779L90.586,51.866L90.644,51.952L90.702,52.035L90.76,52.117L90.818,52.197L90.877,52.275L90.936,52.352L90.995,52.426L91.054,52.499L91.113,52.57L91.173,52.639L91.232,52.707L91.291,52.772L91.351,52.836L91.41,52.898L91.47,52.958L91.529,53.016L91.589,53.073L91.648,53.127L91.707,53.18L91.766,53.23L91.824,53.279L91.883,53.326L91.941,53.371L91.999,53.415L92.057,53.456L92.115,53.496L92.172,53.534L92.229,53.57L92.285,53.605L92.341,53.637L92.397,53.668L92.453,53.698L92.508,53.725L92.562,53.751L92.617,53.776L92.67,53.798L92.724,53.82L92.777,53.839L92.83,53.857L92.883,53.874L92.935,53.889L92.987,53.903L93.038,53.916L93.09,53.927L93.141,53.937L93.192,53.945L93.244,53.952L93.295,53.958L93.346,53.963L93.397,53.966L93.448,53.968L93.5,53.969L93.552,53.968L93.603,53.966L93.654,53.963L93.705,53.958L93.756,53.952L93.808,53.945L93.859,53.937L93.91,53.927L93.962,53.916L94.013,53.903L94.065,53.89L94.117,53.874L94.17,53.857L94.223,53.839L94.276,53.82L94.33,53.798L94.383,53.776L94.438,53.751L94.492,53.725L94.547,53.698L94.603,53.668L94.659,53.637L94.715,53.605L94.771,53.57L94.828,53.534L94.885,53.496L94.943,53.456L95.001,53.415L95.059,53.371L95.117,53.326L95.176,53.279L95.234,53.23L95.293,53.18L95.352,53.127L95.411,53.073L95.471,53.016L95.53,52.958L95.59,52.898L95.649,52.836L95.709,52.772L95.768,52.707L95.827,52.639L95.887,52.57L95.946,52.499L96.005,52.426L96.064,52.352L96.123,52.275L96.182,52.197L96.24,52.117L96.298,52.035L96.356,51.951L96.414,51.866L96.471,51.779L96.529,51.69L96.585,51.6L96.642,51.508L96.698,51.414L96.754,51.319L96.809,51.222L96.864,51.123L96.918,51.023L96.972,50.921L97.026,50.818L97.079,50.713L97.132,50.606L97.184,50.498L97.236,50.389L97.287,50.278L97.337,50.165L97.387,50.051L97.436,49.936L97.485,49.819L97.533,49.701L97.581,49.581L97.628,49.46L97.674,49.338L97.72,49.214L97.765,49.089L97.809,48.963L97.853,48.835L97.896,48.706L97.938,48.576L97.98,48.445L98.021,48.312L98.061,48.178L98.1,48.043L98.139,47.907L98.177,47.769L98.214,47.631L98.25,47.491L98.286,47.35L98.321,47.208L98.355,47.065L98.388,46.921L98.42,46.776L98.451,46.63L98.482,46.483L98.512,46.335L98.541,46.186L98.569,46.036L98.596,45.885L98.622,45.733L98.648,45.58L98.672,45.426L98.696,45.271L98.718,45.115L98.74,44.959L98.761,44.801L98.781,44.643L98.799,44.484L98.817,44.325L98.834,44.164L98.85,44.003L98.865,43.841L98.879,43.678L98.892,43.514L98.905,43.35L98.916,43.185L98.926,43.019L98.935,42.853L98.943,42.686L98.949,42.518L98.955,42.35L98.96,42.181L98.964,42.012L98.967,41.842L98.968,41.671L98.969,41.5L98.968,41.329L98.967,41.158L98.964,40.988L98.96,40.819L98.955,40.65L98.949,40.482L98.943,40.314L98.935,40.147L98.926,39.981L98.916,39.815L98.905,39.65L98.892,39.486L98.879,39.322L98.865,39.159L98.85,38.997L98.834,38.836L98.817,38.675L98.799,38.516L98.781,38.357L98.761,38.199L98.74,38.041L98.718,37.885L98.696,37.729L98.672,37.574L98.648,37.42L98.622,37.267L98.596,37.115L98.569,36.964L98.541,36.814L98.512,36.665L98.482,36.517L98.451,36.37L98.42,36.224L98.388,36.079L98.355,35.935L98.321,35.792L98.286,35.65L98.25,35.509L98.214,35.369L98.177,35.231L98.139,35.093L98.1,34.957L98.061,34.822L98.021,34.688L97.98,34.555L97.938,34.424L97.896,34.294L97.853,34.165L97.809,34.037L97.765,33.911L97.72,33.786L97.674,33.662L97.628,33.54L97.581,33.419L97.533,33.299L97.485,33.181L97.436,33.064L97.387,32.949L97.337,32.835L97.287,32.722L97.236,32.611L97.184,32.502L97.132,32.394L97.079,32.287L97.026,32.182L96.972,32.079L96.918,31.977L96.864,31.877L96.809,31.778L96.754,31.681L96.698,31.586L96.642,31.492L96.585,31.4L96.529,31.31L96.471,31.221L96.414,31.134L96.356,31.049L96.298,30.965L96.24,30.883L96.182,30.803L96.123,30.725L96.064,30.648L96.005,30.574L95.946,30.501L95.887,30.43L95.827,30.36L95.768,30.293L95.709,30.228L95.649,30.164L95.59,30.102L95.53,30.042L95.471,29.984L95.411,29.927L95.352,29.873L95.293,29.82L95.234,29.77L95.176,29.721L95.117,29.674L95.059,29.629L95.001,29.585L94.943,29.544L94.885,29.504L94.828,29.466L94.771,29.43L94.715,29.395L94.659,29.363L94.603,29.332L94.547,29.302L94.492,29.275L94.438,29.249L94.383,29.224L94.329,29.202L94.276,29.18L94.223,29.161L94.17,29.143L94.117,29.126L94.065,29.11L94.013,29.097L93.962,29.084L93.91,29.073L93.859,29.063L93.808,29.055L93.756,29.048L93.705,29.042L93.654,29.037L93.603,29.034L93.552,29.032L93.5,29.031L93.448,29.032Z"/>
            </g>
            <g transform="matrix(2.61224,0,0,2.61224,-134.531,-20.1224)">
                <ellipse cx="93.5" cy="41.5" rx="7" ry="14" style="fill:rgb(242,242,242);"/>
                <path d="M93.59,27.501L93.681,27.505L93.77,27.51L93.86,27.518L93.949,27.528L94.038,27.541L94.127,27.555L94.215,27.572L94.303,27.591L94.391,27.613L94.478,27.636L94.565,27.661L94.652,27.689L94.738,27.719L94.824,27.751L94.91,27.785L94.995,27.821L95.08,27.859L95.164,27.899L95.249,27.941L95.332,27.985L95.415,28.031L95.498,28.08L95.581,28.13L95.663,28.182L95.744,28.236L95.825,28.292L95.906,28.35L95.986,28.41L96.066,28.472L96.145,28.535L96.224,28.601L96.302,28.668L96.38,28.738L96.457,28.809L96.534,28.881L96.61,28.956L96.686,29.033L96.761,29.111L96.835,29.191L96.91,29.272L96.983,29.356L97.056,29.441L97.129,29.528L97.2,29.617L97.272,29.707L97.343,29.799L97.413,29.892L97.482,29.988L97.551,30.084L97.619,30.183L97.687,30.283L97.754,30.384L97.821,30.488L97.886,30.592L97.952,30.699L98.016,30.806L98.08,30.916L98.143,31.026L98.206,31.139L98.267,31.253L98.329,31.368L98.389,31.484L98.449,31.602L98.508,31.722L98.566,31.843L98.624,31.965L98.681,32.089L98.737,32.214L98.792,32.34L98.847,32.468L98.901,32.597L98.954,32.727L99.006,32.859L99.058,32.992L99.109,33.126L99.159,33.261L99.208,33.398L99.256,33.536L99.304,33.675L99.351,33.815L99.397,33.956L99.442,34.099L99.486,34.243L99.529,34.388L99.572,34.534L99.614,34.681L99.655,34.829L99.695,34.978L99.734,35.129L99.772,35.28L99.809,35.433L99.846,35.586L99.881,35.741L99.916,35.896L99.95,36.053L99.982,36.21L100.014,36.369L100.045,36.528L100.075,36.688L100.104,36.85L100.132,37.012L100.159,37.175L100.185,37.339L100.21,37.504L100.234,37.669L100.257,37.836L100.279,38.003L100.301,38.171L100.321,38.34L100.34,38.51L100.358,38.68L100.375,38.851L100.391,39.023L100.405,39.196L100.419,39.369L100.432,39.543L100.444,39.718L100.454,39.893L100.464,40.069L100.472,40.246L100.48,40.423L100.486,40.601L100.491,40.78L100.495,40.959L100.498,41.139L100.499,41.319L100.5,41.5L100.499,41.681L100.498,41.861L100.495,42.041L100.491,42.22L100.486,42.399L100.48,42.577L100.472,42.754L100.464,42.931L100.454,43.107L100.444,43.282L100.432,43.457L100.419,43.631L100.405,43.804L100.391,43.977L100.375,44.149L100.358,44.32L100.34,44.49L100.321,44.66L100.301,44.829L100.279,44.997L100.257,45.164L100.234,45.331L100.21,45.496L100.185,45.661L100.159,45.825L100.132,45.988L100.104,46.15L100.075,46.312L100.045,46.472L100.014,46.631L99.982,46.79L99.95,46.947L99.916,47.104L99.881,47.259L99.846,47.414L99.809,47.567L99.772,47.72L99.734,47.871L99.695,48.022L99.655,48.171L99.614,48.319L99.572,48.466L99.529,48.612L99.486,48.757L99.442,48.901L99.397,49.044L99.351,49.185L99.304,49.325L99.256,49.464L99.208,49.602L99.159,49.739L99.109,49.874L99.058,50.008L99.006,50.141L98.954,50.273L98.901,50.403L98.847,50.532L98.792,50.66L98.737,50.786L98.681,50.911L98.624,51.035L98.566,51.157L98.508,51.278L98.449,51.398L98.389,51.516L98.329,51.632L98.267,51.747L98.206,51.861L98.143,51.974L98.08,52.084L98.016,52.194L97.952,52.301L97.886,52.408L97.821,52.512L97.754,52.616L97.687,52.717L97.619,52.817L97.551,52.916L97.482,53.012L97.413,53.108L97.343,53.201L97.272,53.293L97.2,53.383L97.129,53.472L97.056,53.559L96.983,53.644L96.91,53.728L96.835,53.809L96.761,53.889L96.686,53.967L96.61,54.044L96.534,54.119L96.457,54.191L96.38,54.262L96.302,54.332L96.224,54.399L96.145,54.465L96.066,54.528L95.986,54.59L95.906,54.65L95.825,54.708L95.744,54.764L95.663,54.818L95.581,54.87L95.498,54.92L95.415,54.969L95.332,55.015L95.249,55.059L95.164,55.101L95.08,55.141L94.995,55.179L94.91,55.215L94.824,55.249L94.738,55.281L94.652,55.311L94.565,55.339L94.478,55.364L94.391,55.387L94.303,55.409L94.215,55.428L94.127,55.445L94.038,55.459L93.949,55.472L93.86,55.482L93.77,55.49L93.681,55.495L93.59,55.499L93.5,55.5L93.41,55.499L93.319,55.495L93.23,55.49L93.14,55.482L93.051,55.472L92.962,55.459L92.873,55.445L92.785,55.428L92.697,55.409L92.609,55.387L92.522,55.364L92.435,55.339L92.348,55.311L92.262,55.281L92.176,55.249L92.09,55.215L92.005,55.179L91.92,55.141L91.836,55.101L91.751,55.059L91.668,55.015L91.585,54.969L91.502,54.92L91.419,54.87L91.337,54.818L91.256,54.764L91.175,54.708L91.094,54.65L91.014,54.59L90.934,54.528L90.855,54.465L90.776,54.399L90.698,54.332L90.62,54.262L90.543,54.191L90.466,54.119L90.39,54.044L90.314,53.967L90.239,53.889L90.165,53.809L90.09,53.728L90.017,53.644L89.944,53.559L89.871,53.472L89.8,53.383L89.728,53.293L89.657,53.201L89.587,53.108L89.518,53.012L89.449,52.916L89.381,52.817L89.313,52.717L89.246,52.616L89.179,52.512L89.114,52.408L89.048,52.301L88.984,52.194L88.92,52.084L88.857,51.974L88.794,51.861L88.733,51.747L88.671,51.632L88.611,51.516L88.551,51.398L88.492,51.278L88.434,51.157L88.376,51.035L88.319,50.911L88.263,50.786L88.208,50.66L88.153,50.532L88.099,50.403L88.046,50.273L87.994,50.141L87.942,50.008L87.891,49.874L87.841,49.739L87.792,49.602L87.744,49.464L87.696,49.325L87.649,49.185L87.603,49.044L87.558,48.901L87.514,48.757L87.471,48.612L87.428,48.466L87.386,48.319L87.345,48.171L87.305,48.022L87.266,47.871L87.228,47.72L87.191,47.567L87.154,47.414L87.119,47.259L87.084,47.104L87.05,46.947L87.018,46.79L86.986,46.631L86.955,46.472L86.925,46.312L86.896,46.15L86.868,45.988L86.841,45.825L86.815,45.661L86.79,45.496L86.766,45.331L86.743,45.164L86.721,44.997L86.699,44.829L86.679,44.66L86.66,44.49L86.642,44.32L86.625,44.149L86.609,43.977L86.595,43.804L86.581,43.631L86.568,43.457L86.556,43.282L86.546,43.107L86.536,42.931L86.528,42.754L86.52,42.577L86.514,42.399L86.509,42.22L86.505,42.041L86.502,41.861L86.501,41.681L86.5,41.5L86.501,41.319L86.502,41.139L86.505,40.959L86.509,40.78L86.514,40.601L86.52,40.423L86.528,40.246L86.536,40.069L86.546,39.893L86.556,39.718L86.568,39.543L86.581,39.369L86.595,39.196L86.609,39.023L86.625,38.851L86.642,38.68L86.66,38.51L86.679,38.34L86.699,38.171L86.721,38.003L86.743,37.836L86.766,37.669L86.79,37.504L86.815,37.339L86.841,37.175L86.868,37.012L86.896,36.85L86.925,36.688L86.955,36.528L86.986,36.369L87.018,36.21L87.05,36.053L87.084,35.896L87.119,35.741L87.154,35.586L87.191,35.433L87.228,35.28L87.266,35.129L87.305,34.978L87.345,34.829L87.386,34.681L87.428,34.534L87.471,34.388L87.514,34.243L87.558,34.099L87.603,33.956L87.649,33.815L87.696,33.675L87.744,33.536L87.792,33.398L87.841,33.261L87.891,33.126L87.942,32.992L87.994,32.859L88.046,32.727L88.099,32.597L88.153,32.468L88.208,32.34L88.263,32.214L88.319,32.089L88.376,31.965L88.434,31.843L88.492,31.722L88.551,31.602L88.611,31.484L88.671,31.368L88.733,31.253L88.794,31.139L88.857,31.026L88.92,30.916L88.984,30.806L89.048,30.699L89.114,30.592L89.179,30.488L89.246,30.384L89.313,30.283L89.381,30.183L89.449,30.084L89.518,29.988L89.587,29.892L89.657,29.799L89.728,29.707L89.8,29.617L89.871,29.528L89.944,29.441L90.017,29.356L90.09,29.272L90.165,29.191L90.239,29.111L90.314,29.033L90.39,28.956L90.466,28.881L90.543,28.809L90.62,28.738L90.698,28.668L90.776,28.601L90.855,28.535L90.934,28.472L91.014,28.41L91.094,28.35L91.175,28.292L91.256,28.236L91.337,28.182L91.419,28.13L91.502,28.08L91.585,28.031L91.668,27.985L91.751,27.941L91.836,27.899L91.92,27.859L92.005,27.821L92.09,27.785L92.176,27.751L92.262,27.719L92.348,27.689L92.435,27.661L92.522,27.636L92.609,27.613L92.697,27.591L92.785,27.572L92.873,27.555L92.962,27.541L93.051,27.528L93.14,27.518L93.23,27.51L93.319,27.505L93.41,27.501L93.5,27.5L93.59,27.501ZM93.448,29.032L93.397,29.034L93.346,29.037L93.295,29.042L93.244,29.048L93.192,29.055L93.141,29.063L93.09,29.073L93.038,29.084L92.987,29.097L92.935,29.111L92.883,29.126L92.83,29.143L92.777,29.161L92.724,29.18L92.671,29.202L92.617,29.224L92.562,29.249L92.508,29.275L92.453,29.302L92.397,29.332L92.341,29.363L92.285,29.395L92.229,29.43L92.172,29.466L92.115,29.504L92.057,29.544L91.999,29.585L91.941,29.629L91.883,29.674L91.824,29.721L91.766,29.77L91.707,29.82L91.648,29.873L91.589,29.927L91.529,29.984L91.47,30.042L91.41,30.102L91.351,30.164L91.291,30.228L91.232,30.293L91.173,30.36L91.113,30.43L91.054,30.501L90.995,30.574L90.936,30.648L90.877,30.725L90.818,30.803L90.76,30.883L90.702,30.965L90.644,31.049L90.586,31.134L90.529,31.221L90.471,31.31L90.415,31.4L90.358,31.492L90.302,31.586L90.246,31.681L90.191,31.778L90.136,31.877L90.082,31.977L90.028,32.079L89.974,32.182L89.921,32.287L89.868,32.394L89.816,32.502L89.764,32.611L89.713,32.722L89.663,32.835L89.613,32.949L89.564,33.064L89.515,33.181L89.467,33.299L89.419,33.419L89.372,33.54L89.326,33.662L89.28,33.786L89.235,33.911L89.191,34.037L89.147,34.165L89.104,34.294L89.062,34.424L89.02,34.555L88.979,34.688L88.939,34.822L88.9,34.957L88.861,35.093L88.823,35.231L88.786,35.369L88.75,35.509L88.714,35.65L88.679,35.792L88.645,35.935L88.612,36.079L88.58,36.224L88.549,36.37L88.518,36.517L88.488,36.665L88.459,36.814L88.431,36.964L88.404,37.115L88.378,37.267L88.352,37.42L88.328,37.574L88.304,37.729L88.282,37.885L88.26,38.041L88.239,38.198L88.219,38.357L88.201,38.516L88.183,38.675L88.166,38.836L88.15,38.997L88.135,39.159L88.121,39.322L88.108,39.486L88.095,39.65L88.084,39.815L88.074,39.981L88.065,40.147L88.057,40.314L88.051,40.482L88.045,40.65L88.04,40.819L88.036,40.988L88.033,41.158L88.032,41.329L88.031,41.5L88.032,41.671L88.033,41.842L88.036,42.012L88.04,42.181L88.045,42.35L88.051,42.518L88.057,42.686L88.065,42.853L88.074,43.019L88.084,43.185L88.095,43.35L88.108,43.514L88.121,43.678L88.135,43.841L88.15,44.003L88.166,44.164L88.183,44.325L88.201,44.484L88.219,44.643L88.239,44.802L88.26,44.959L88.282,45.115L88.304,45.271L88.328,45.426L88.352,45.58L88.378,45.733L88.404,45.885L88.431,46.036L88.459,46.186L88.488,46.335L88.518,46.483L88.549,46.63L88.58,46.776L88.612,46.921L88.645,47.065L88.679,47.208L88.714,47.35L88.75,47.491L88.786,47.631L88.823,47.769L88.861,47.907L88.9,48.043L88.939,48.178L88.979,48.312L89.02,48.445L89.062,48.576L89.104,48.706L89.147,48.835L89.191,48.963L89.235,49.089L89.28,49.214L89.326,49.338L89.372,49.46L89.419,49.581L89.467,49.701L89.515,49.819L89.564,49.936L89.613,50.051L89.663,50.165L89.713,50.278L89.764,50.389L89.816,50.498L89.868,50.606L89.921,50.713L89.974,50.818L90.028,50.921L90.082,51.023L90.136,51.123L90.191,51.222L90.246,51.319L90.302,51.414L90.358,51.508L90.415,51.6L90.471,51.69L90.529,51.779L90.586,51.866L90.644,51.951L90.702,52.035L90.76,52.117L90.818,52.197L90.877,52.275L90.936,52.352L90.995,52.426L91.054,52.499L91.113,52.57L91.173,52.639L91.232,52.707L91.291,52.772L91.351,52.836L91.41,52.898L91.47,52.958L91.529,53.016L91.589,53.073L91.648,53.127L91.707,53.18L91.766,53.23L91.824,53.279L91.883,53.326L91.941,53.371L91.999,53.415L92.057,53.456L92.115,53.496L92.172,53.534L92.229,53.57L92.285,53.605L92.341,53.637L92.397,53.668L92.453,53.698L92.508,53.725L92.562,53.751L92.617,53.776L92.67,53.798L92.724,53.82L92.777,53.839L92.83,53.857L92.883,53.874L92.935,53.889L92.987,53.903L93.038,53.916L93.09,53.927L93.141,53.937L93.192,53.945L93.244,53.952L93.295,53.958L93.346,53.963L93.397,53.966L93.448,53.968L93.5,53.969L93.552,53.968L93.603,53.966L93.654,53.963L93.705,53.958L93.756,53.952L93.808,53.945L93.859,53.937L93.91,53.927L93.962,53.916L94.013,53.903L94.065,53.889L94.117,53.874L94.17,53.857L94.223,53.839L94.276,53.82L94.33,53.798L94.383,53.776L94.438,53.751L94.492,53.725L94.547,53.698L94.603,53.668L94.659,53.637L94.715,53.605L94.771,53.57L94.828,53.534L94.885,53.496L94.943,53.456L95.001,53.415L95.059,53.371L95.117,53.326L95.176,53.279L95.234,53.23L95.293,53.18L95.352,53.127L95.411,53.073L95.471,53.016L95.53,52.958L95.59,52.898L95.649,52.836L95.709,52.772L95.768,52.707L95.827,52.639L95.887,52.57L95.946,52.499L96.005,52.426L96.064,52.352L96.123,52.275L96.182,52.197L96.24,52.117L96.298,52.035L96.356,51.951L96.414,51.866L96.471,51.779L96.529,51.69L96.585,51.6L96.642,51.508L96.698,51.414L96.754,51.319L96.809,51.222L96.864,51.123L96.918,51.023L96.972,50.921L97.026,50.818L97.079,50.713L97.132,50.606L97.184,50.498L97.236,50.389L97.287,50.278L97.337,50.165L97.387,50.051L97.436,49.936L97.485,49.819L97.533,49.701L97.581,49.581L97.628,49.46L97.674,49.338L97.72,49.214L97.765,49.089L97.809,48.963L97.853,48.835L97.896,48.706L97.938,48.576L97.98,48.445L98.021,48.312L98.061,48.178L98.1,48.043L98.139,47.907L98.177,47.769L98.214,47.631L98.25,47.491L98.286,47.35L98.321,47.208L98.355,47.065L98.388,46.921L98.42,46.776L98.451,46.63L98.482,46.483L98.512,46.335L98.541,46.186L98.569,46.036L98.596,45.885L98.622,45.733L98.648,45.58L98.672,45.426L98.696,45.271L98.718,45.115L98.74,44.959L98.761,44.802L98.781,44.643L98.799,44.484L98.817,44.325L98.834,44.164L98.85,44.003L98.865,43.841L98.879,43.678L98.892,43.514L98.905,43.35L98.916,43.185L98.926,43.019L98.935,42.853L98.943,42.686L98.949,42.518L98.955,42.35L98.96,42.181L98.964,42.012L98.967,41.842L98.968,41.671L98.969,41.5L98.968,41.329L98.967,41.158L98.964,40.988L98.96,40.819L98.955,40.65L98.949,40.482L98.943,40.314L98.935,40.147L98.926,39.981L98.916,39.815L98.905,39.65L98.892,39.486L98.879,39.322L98.865,39.159L98.85,38.997L98.834,38.836L98.817,38.675L98.799,38.516L98.781,38.357L98.761,38.198L98.74,38.041L98.718,37.885L98.696,37.729L98.672,37.574L98.648,37.42L98.622,37.267L98.596,37.115L98.569,36.964L98.541,36.814L98.512,36.665L98.482,36.517L98.451,36.37L98.42,36.224L98.388,36.079L98.355,35.935L98.321,35.792L98.286,35.65L98.25,35.509L98.214,35.369L98.177,35.231L98.139,35.093L98.1,34.957L98.061,34.822L98.021,34.688L97.98,34.555L97.938,34.424L97.896,34.294L97.853,34.165L97.809,34.037L97.765,33.911L97.72,33.786L97.674,33.662L97.628,33.54L97.581,33.419L97.533,33.299L97.485,33.181L97.436,33.064L97.387,32.949L97.337,32.835L97.287,32.722L97.236,32.611L97.184,32.502L97.132,32.394L97.079,32.287L97.026,32.182L96.972,32.079L96.918,31.977L96.864,31.877L96.809,31.778L96.754,31.681L96.698,31.586L96.642,31.492L96.585,31.4L96.529,31.31L96.471,31.221L96.414,31.134L96.356,31.049L96.298,30.965L96.24,30.883L96.182,30.803L96.123,30.725L96.064,30.648L96.005,30.574L95.946,30.501L95.887,30.43L95.827,30.36L95.768,30.293L95.709,30.228L95.649,30.164L95.59,30.102L95.53,30.042L95.471,29.984L95.411,29.927L95.352,29.873L95.293,29.82L95.234,29.77L95.176,29.721L95.117,29.674L95.059,29.629L95.001,29.585L94.943,29.544L94.885,29.504L94.828,29.466L94.771,29.43L94.715,29.395L94.659,29.363L94.603,29.332L94.547,29.302L94.492,29.275L94.438,29.249L94.383,29.224L94.329,29.202L94.276,29.18L94.223,29.161L94.17,29.143L94.117,29.126L94.065,29.111L94.013,29.097L93.962,29.084L93.91,29.073L93.859,29.063L93.808,29.055L93.756,29.048L93.705,29.042L93.654,29.037L93.603,29.034L93.552,29.032L93.5,29.031L93.448,29.032Z"/>
            </g>
            <g transform="matrix(2.61224,0,0,2.61224,-223.347,-20.1224)">
                <path d="M90.859,28.375L90.859,21.503C90.859,20.509 91.246,19.554 91.938,18.84C93.776,16.942 97.5,13.097 99.372,11.165C100.093,10.42 101.085,10 102.122,10C105.71,10 114.29,10 117.878,10C118.915,10 119.907,10.42 120.628,11.165C122.5,13.097 126.224,16.942 128.062,18.84C128.754,19.554 129.141,20.509 129.141,21.503C129.141,23.936 129.141,28.375 129.141,28.375" style="fill:none;stroke:black;stroke-width:1.23px;"/>
            </g>
            <g transform="matrix(2.61224,0,0,2.61224,-210.286,-17.5102)">
                <path d="M90.453,27.375L90.453,22.836C90.453,21.82 90.856,20.847 91.574,20.129C93.025,18.678 95.538,16.166 96.988,14.715C97.706,13.997 98.68,13.594 99.695,13.594C102.439,13.594 108.053,13.594 110.907,13.594C112.018,13.594 113.074,14.076 113.801,14.916C115.143,16.467 117.34,19.005 118.578,20.434C119.173,21.122 119.504,22 119.511,22.909C119.525,24.647 119.547,27.375 119.547,27.375" style="fill:none;stroke:black;stroke-width:1.23px;"/>
            </g>
        </g>
    </g>
</svg>
