<?xml version="1.0" encoding="UTF-8" standalone="no"?>
<!DOCTYPE svg PUBLIC "-//W3C//DTD SVG 1.1//EN" "http://www.w3.org/Graphics/SVG/1.1/DTD/svg11.dtd">
<svg width="100%" height="100%" viewBox="0 0 64 64" version="1.1" xmlns="http://www.w3.org/2000/svg" xmlns:xlink="http://www.w3.org/1999/xlink" xml:space="preserve" xmlns:serif="http://www.serif.com/" style="fill-rule:evenodd;clip-rule:evenodd;stroke-linecap:round;stroke-linejoin:round;stroke-miterlimit:1.5;">
    <g id="mouse" transform="matrix(0.5,0,0,0.5,0,0)">
        <rect x="0" y="0" width="128" height="128" style="fill:none;"/>
        <clipPath id="_clip1">
            <rect x="0" y="0" width="128" height="128"/>
        </clipPath>
        <g clip-path="url(#_clip1)">
            <g transform="matrix(2,0,0,2,2,0)">
                <g transform="matrix(1.90476,0,0,2.13333,0.52381,0)">
                    <path d="M26.5,9.375C26.5,4.201 21.795,0 16,0C10.205,0 5.5,4.201 5.5,9.375L5.5,20.625C5.5,25.799 10.205,30 16,30C21.795,30 26.5,25.799 26.5,20.625L26.5,9.375Z" style="fill:rgb(153,153,153);"/>
                    <path d="M16.068,0L16.136,0.001L16.203,0.002L16.271,0.003L16.338,0.005L16.406,0.007L16.473,0.009L16.54,0.012L16.607,0.015L16.674,0.019L16.741,0.023L16.807,0.027L16.874,0.032L16.94,0.037L17.007,0.043L17.073,0.048L17.139,0.055L17.205,0.061L17.271,0.068L17.337,0.075L17.402,0.083L17.468,0.091L17.533,0.099L17.598,0.108L17.663,0.117L17.728,0.127L17.793,0.136L17.858,0.147L17.922,0.157L17.987,0.168L18.051,0.179L18.115,0.191L18.179,0.202L18.243,0.215L18.307,0.227L18.37,0.24L18.433,0.254L18.497,0.267L18.56,0.281L18.623,0.295L18.686,0.31L18.748,0.325L18.811,0.34L18.873,0.356L18.935,0.372L18.997,0.388L19.059,0.405L19.121,0.422L19.182,0.439L19.244,0.457L19.305,0.475L19.366,0.493L19.427,0.512L19.488,0.53L19.548,0.55L19.609,0.569L19.669,0.589L19.729,0.609L19.789,0.63L19.848,0.651L19.967,0.693L20.085,0.737L20.203,0.782L20.319,0.829L20.435,0.876L20.55,0.925L20.665,0.975L20.778,1.026L20.891,1.079L21.003,1.132L21.114,1.187L21.225,1.243L21.334,1.3L21.443,1.358L21.551,1.417L21.658,1.478L21.764,1.539L21.869,1.602L21.973,1.666L22.077,1.731L22.179,1.797L22.281,1.863L22.381,1.932L22.481,2.001L22.58,2.071L22.677,2.142L22.774,2.214L22.87,2.287L22.965,2.361L23.058,2.437L23.151,2.513L23.243,2.59L23.334,2.668L23.423,2.747L23.512,2.827L23.599,2.908L23.686,2.99L23.771,3.073L23.855,3.157L23.938,3.241L24.02,3.327L24.101,3.413L24.181,3.5L24.259,3.588L24.337,3.677L24.413,3.767L24.488,3.858L24.562,3.949L24.634,4.042L24.706,4.135L24.776,4.229L24.845,4.324L24.913,4.419L24.979,4.515L25.044,4.612L25.108,4.71L25.171,4.809L25.232,4.908L25.292,5.008L25.351,5.109L25.408,5.21L25.464,5.312L25.519,5.415L25.572,5.518L25.624,5.622L25.674,5.727L25.723,5.833L25.771,5.939L25.795,5.992L25.818,6.046L25.84,6.099L25.862,6.153L25.884,6.207L25.906,6.261L25.927,6.315L25.948,6.37L25.968,6.424L25.988,6.479L26.008,6.533L26.028,6.588L26.047,6.644L26.065,6.699L26.084,6.754L26.101,6.81L26.119,6.865L26.136,6.921L26.153,6.977L26.169,7.033L26.185,7.089L26.201,7.146L26.216,7.202L26.231,7.259L26.245,7.316L26.259,7.372L26.273,7.429L26.287,7.487L26.299,7.544L26.312,7.601L26.324,7.659L26.336,7.716L26.347,7.774L26.358,7.832L26.369,7.89L26.379,7.948L26.389,8.006L26.398,8.065L26.407,8.123L26.416,8.182L26.424,8.24L26.431,8.299L26.439,8.358L26.446,8.417L26.452,8.476L26.458,8.535L26.464,8.595L26.469,8.654L26.474,8.714L26.479,8.773L26.483,8.833L26.486,8.893L26.49,8.953L26.492,9.013L26.495,9.073L26.497,9.133L26.498,9.194L26.499,9.254L26.5,9.314L26.5,9.375L26.5,20.625L26.5,20.686L26.499,20.746L26.498,20.806L26.497,20.867L26.495,20.927L26.492,20.987L26.49,21.047L26.486,21.107L26.483,21.167L26.479,21.227L26.474,21.286L26.469,21.346L26.464,21.405L26.458,21.465L26.452,21.524L26.446,21.583L26.439,21.642L26.431,21.701L26.424,21.76L26.416,21.818L26.407,21.877L26.398,21.935L26.389,21.994L26.379,22.052L26.369,22.11L26.358,22.168L26.347,22.226L26.336,22.284L26.324,22.341L26.312,22.399L26.299,22.456L26.287,22.513L26.273,22.571L26.259,22.628L26.245,22.684L26.231,22.741L26.216,22.798L26.201,22.854L26.185,22.911L26.169,22.967L26.153,23.023L26.136,23.079L26.119,23.135L26.101,23.19L26.084,23.246L26.065,23.301L26.047,23.356L26.028,23.412L26.008,23.467L25.988,23.521L25.968,23.576L25.948,23.63L25.927,23.685L25.906,23.739L25.884,23.793L25.862,23.847L25.84,23.901L25.818,23.954L25.795,24.008L25.771,24.061L25.723,24.167L25.674,24.273L25.624,24.378L25.572,24.482L25.519,24.585L25.464,24.688L25.408,24.79L25.351,24.891L25.292,24.992L25.232,25.092L25.171,25.191L25.108,25.29L25.044,25.388L24.979,25.485L24.913,25.581L24.845,25.676L24.776,25.771L24.706,25.865L24.634,25.958L24.562,26.051L24.488,26.142L24.413,26.233L24.337,26.323L24.259,26.412L24.181,26.5L24.101,26.587L24.02,26.673L23.938,26.759L23.855,26.843L23.771,26.927L23.686,27.01L23.599,27.092L23.512,27.173L23.423,27.253L23.334,27.332L23.243,27.41L23.151,27.487L23.058,27.563L22.965,27.639L22.87,27.713L22.774,27.786L22.677,27.858L22.58,27.929L22.481,27.999L22.381,28.068L22.281,28.137L22.179,28.203L22.077,28.269L21.973,28.334L21.869,28.398L21.764,28.461L21.658,28.522L21.551,28.583L21.443,28.642L21.334,28.7L21.225,28.757L21.114,28.813L21.003,28.868L20.891,28.921L20.778,28.974L20.665,29.025L20.55,29.075L20.435,29.124L20.319,29.171L20.203,29.218L20.085,29.263L19.967,29.307L19.848,29.349L19.789,29.37L19.729,29.391L19.669,29.411L19.609,29.431L19.548,29.45L19.488,29.47L19.427,29.488L19.366,29.507L19.305,29.525L19.244,29.543L19.182,29.561L19.121,29.578L19.059,29.595L18.997,29.612L18.935,29.628L18.873,29.644L18.811,29.66L18.748,29.675L18.686,29.69L18.623,29.705L18.56,29.719L18.497,29.733L18.433,29.746L18.37,29.76L18.307,29.773L18.243,29.785L18.179,29.798L18.115,29.809L18.051,29.821L17.987,29.832L17.922,29.843L17.858,29.853L17.793,29.864L17.728,29.873L17.663,29.883L17.598,29.892L17.533,29.901L17.468,29.909L17.402,29.917L17.337,29.925L17.271,29.932L17.205,29.939L17.139,29.945L17.073,29.952L17.007,29.957L16.94,29.963L16.874,29.968L16.807,29.973L16.741,29.977L16.674,29.981L16.607,29.985L16.54,29.988L16.473,29.991L16.406,29.993L16.338,29.995L16.271,29.997L16.203,29.998L16.136,29.999L16.068,30L16,30L15.932,30L15.864,29.999L15.797,29.998L15.729,29.997L15.662,29.995L15.594,29.993L15.527,29.991L15.46,29.988L15.393,29.985L15.326,29.981L15.259,29.977L15.193,29.973L15.126,29.968L15.06,29.963L14.993,29.957L14.927,29.952L14.861,29.945L14.795,29.939L14.729,29.932L14.663,29.925L14.598,29.917L14.532,29.909L14.467,29.901L14.402,29.892L14.337,29.883L14.272,29.873L14.207,29.864L14.142,29.853L14.078,29.843L14.013,29.832L13.949,29.821L13.885,29.809L13.821,29.798L13.757,29.785L13.693,29.773L13.63,29.76L13.567,29.746L13.503,29.733L13.44,29.719L13.377,29.705L13.314,29.69L13.252,29.675L13.189,29.66L13.127,29.644L13.065,29.628L13.003,29.612L12.941,29.595L12.879,29.578L12.818,29.561L12.756,29.543L12.695,29.525L12.634,29.507L12.573,29.488L12.512,29.47L12.452,29.45L12.391,29.431L12.331,29.411L12.271,29.391L12.211,29.37L12.152,29.349L12.033,29.307L11.915,29.263L11.797,29.218L11.681,29.171L11.565,29.124L11.45,29.075L11.335,29.025L11.222,28.974L11.109,28.921L10.997,28.868L10.886,28.813L10.775,28.757L10.666,28.7L10.557,28.642L10.449,28.583L10.342,28.522L10.236,28.461L10.131,28.398L10.027,28.334L9.923,28.269L9.821,28.203L9.719,28.137L9.619,28.068L9.519,27.999L9.42,27.929L9.323,27.858L9.226,27.786L9.13,27.713L9.035,27.639L8.942,27.563L8.849,27.487L8.757,27.41L8.666,27.332L8.577,27.253L8.488,27.173L8.401,27.092L8.314,27.01L8.229,26.927L8.145,26.843L8.062,26.759L7.98,26.673L7.899,26.587L7.819,26.5L7.741,26.412L7.663,26.323L7.587,26.233L7.512,26.142L7.438,26.051L7.366,25.958L7.294,25.865L7.224,25.771L7.155,25.676L7.087,25.581L7.021,25.485L6.956,25.388L6.892,25.29L6.829,25.191L6.768,25.092L6.708,24.992L6.649,24.891L6.592,24.79L6.536,24.688L6.481,24.585L6.428,24.482L6.376,24.378L6.326,24.273L6.277,24.167L6.229,24.061L6.205,24.008L6.182,23.954L6.16,23.901L6.138,23.847L6.116,23.793L6.094,23.739L6.073,23.685L6.052,23.63L6.032,23.576L6.012,23.521L5.992,23.467L5.972,23.412L5.953,23.356L5.935,23.301L5.916,23.246L5.899,23.19L5.881,23.135L5.864,23.079L5.847,23.023L5.831,22.967L5.815,22.911L5.799,22.854L5.784,22.798L5.769,22.741L5.755,22.684L5.741,22.628L5.727,22.571L5.713,22.513L5.701,22.456L5.688,22.399L5.676,22.341L5.664,22.284L5.653,22.226L5.642,22.168L5.631,22.11L5.621,22.052L5.611,21.994L5.602,21.935L5.593,21.877L5.584,21.818L5.576,21.76L5.569,21.701L5.561,21.642L5.554,21.583L5.548,21.524L5.542,21.465L5.536,21.405L5.531,21.346L5.526,21.286L5.521,21.227L5.517,21.167L5.514,21.107L5.51,21.047L5.508,20.987L5.505,20.927L5.503,20.867L5.502,20.806L5.501,20.746L5.5,20.686L5.5,20.625L5.5,9.375L5.5,9.314L5.501,9.254L5.502,9.194L5.503,9.133L5.505,9.073L5.508,9.013L5.51,8.953L5.514,8.893L5.517,8.833L5.521,8.773L5.526,8.714L5.531,8.654L5.536,8.595L5.542,8.535L5.548,8.476L5.554,8.417L5.561,8.358L5.569,8.299L5.576,8.24L5.584,8.182L5.593,8.123L5.602,8.065L5.611,8.006L5.621,7.948L5.631,7.89L5.642,7.832L5.653,7.774L5.664,7.716L5.676,7.659L5.688,7.601L5.701,7.544L5.713,7.487L5.727,7.429L5.741,7.372L5.755,7.316L5.769,7.259L5.784,7.202L5.799,7.146L5.815,7.089L5.831,7.033L5.847,6.977L5.864,6.921L5.881,6.865L5.899,6.81L5.916,6.754L5.935,6.699L5.953,6.644L5.972,6.588L5.992,6.533L6.012,6.479L6.032,6.424L6.052,6.37L6.073,6.315L6.094,6.261L6.116,6.207L6.138,6.153L6.16,6.099L6.182,6.046L6.205,5.992L6.229,5.939L6.277,5.833L6.326,5.727L6.376,5.622L6.428,5.518L6.481,5.415L6.536,5.312L6.592,5.21L6.649,5.109L6.708,5.008L6.768,4.908L6.829,4.809L6.892,4.71L6.956,4.612L7.021,4.515L7.087,4.419L7.155,4.324L7.224,4.229L7.294,4.135L7.366,4.042L7.438,3.949L7.512,3.858L7.587,3.767L7.663,3.677L7.741,3.588L7.819,3.5L7.899,3.413L7.98,3.327L8.062,3.241L8.145,3.157L8.229,3.073L8.314,2.99L8.401,2.908L8.488,2.827L8.577,2.747L8.666,2.668L8.757,2.59L8.849,2.513L8.942,2.437L9.035,2.361L9.13,2.287L9.226,2.214L9.323,2.142L9.42,2.071L9.519,2.001L9.619,1.932L9.719,1.863L9.821,1.797L9.923,1.731L10.027,1.666L10.131,1.602L10.236,1.539L10.342,1.478L10.449,1.417L10.557,1.358L10.666,1.3L10.775,1.243L10.886,1.187L10.997,1.132L11.109,1.079L11.222,1.026L11.335,0.975L11.45,0.925L11.565,0.876L11.681,0.829L11.797,0.782L11.915,0.737L12.033,0.693L12.152,0.651L12.211,0.63L12.271,0.609L12.331,0.589L12.391,0.569L12.452,0.55L12.512,0.53L12.573,0.512L12.634,0.493L12.695,0.475L12.756,0.457L12.818,0.439L12.879,0.422L12.941,0.405L13.003,0.388L13.065,0.372L13.127,0.356L13.189,0.34L13.252,0.325L13.314,0.31L13.377,0.295L13.44,0.281L13.503,0.267L13.567,0.254L13.63,0.24L13.693,0.227L13.757,0.215L13.821,0.202L13.885,0.191L13.949,0.179L14.013,0.168L14.078,0.157L14.142,0.147L14.207,0.136L14.272,0.127L14.337,0.117L14.402,0.108L14.467,0.099L14.532,0.091L14.598,0.083L14.663,0.075L14.729,0.068L14.795,0.061L14.861,0.055L14.927,0.048L14.993,0.043L15.06,0.037L15.126,0.032L15.193,0.027L15.259,0.023L15.326,0.019L15.393,0.015L15.46,0.012L15.527,0.009L15.594,0.007L15.662,0.005L15.729,0.003L15.797,0.002L15.864,0.001L15.932,0L16,0L16.068,0ZM15.939,0.938L15.878,0.938L15.817,0.939L15.756,0.94L15.695,0.942L15.634,0.944L15.574,0.946L15.513,0.949L15.453,0.951L15.393,0.955L15.332,0.958L15.272,0.962L15.212,0.966L15.153,0.971L15.093,0.976L15.033,0.981L14.974,0.987L14.914,0.993L14.855,0.999L14.796,1.005L14.737,1.012L14.678,1.019L14.619,1.027L14.561,1.035L14.502,1.043L14.444,1.051L14.385,1.06L14.327,1.069L14.269,1.079L14.211,1.089L14.153,1.099L14.096,1.109L14.038,1.12L13.981,1.131L13.923,1.142L13.866,1.154L13.809,1.166L13.752,1.178L13.696,1.19L13.639,1.203L13.583,1.216L13.526,1.23L13.47,1.244L13.414,1.258L13.358,1.272L13.302,1.287L13.247,1.302L13.191,1.317L13.136,1.332L13.081,1.348L13.026,1.364L12.971,1.381L12.916,1.398L12.861,1.415L12.807,1.432L12.753,1.45L12.698,1.467L12.644,1.486L12.591,1.504L12.538,1.522L12.43,1.561L12.324,1.601L12.218,1.641L12.113,1.683L12.009,1.726L11.906,1.77L11.803,1.815L11.7,1.861L11.599,1.908L11.498,1.956L11.398,2.005L11.299,2.055L11.2,2.107L11.103,2.159L11.005,2.213L10.909,2.267L10.814,2.322L10.719,2.379L10.625,2.436L10.532,2.495L10.44,2.554L10.348,2.614L10.258,2.675L10.168,2.738L10.079,2.801L9.991,2.865L9.904,2.93L9.818,2.996L9.732,3.063L9.648,3.13L9.564,3.199L9.482,3.269L9.4,3.339L9.319,3.41L9.24,3.482L9.161,3.555L9.083,3.629L9.006,3.703L8.93,3.779L8.855,3.855L8.782,3.932L8.709,4.01L8.637,4.088L8.566,4.168L8.497,4.248L8.428,4.329L8.36,4.41L8.294,4.493L8.229,4.576L8.164,4.66L8.101,4.744L8.039,4.83L7.978,4.916L7.918,5.002L7.86,5.09L7.802,5.178L7.746,5.266L7.691,5.356L7.637,5.446L7.584,5.536L7.532,5.627L7.482,5.719L7.433,5.812L7.385,5.905L7.338,5.998L7.293,6.093L7.248,6.188L7.205,6.284L7.185,6.331L7.164,6.379L7.143,6.427L7.123,6.476L7.104,6.524L7.084,6.573L7.065,6.621L7.047,6.67L7.028,6.719L7.01,6.768L6.992,6.818L6.975,6.867L6.958,6.917L6.941,6.966L6.925,7.016L6.909,7.066L6.893,7.116L6.877,7.166L6.862,7.217L6.848,7.267L6.833,7.318L6.819,7.368L6.805,7.419L6.792,7.47L6.779,7.521L6.766,7.572L6.754,7.623L6.742,7.675L6.73,7.726L6.719,7.778L6.708,7.83L6.698,7.881L6.688,7.933L6.678,7.985L6.668,8.038L6.659,8.09L6.65,8.142L6.642,8.195L6.634,8.247L6.626,8.3L6.619,8.353L6.612,8.406L6.605,8.459L6.599,8.512L6.593,8.565L6.587,8.618L6.582,8.672L6.578,8.725L6.573,8.779L6.569,8.833L6.566,8.886L6.562,8.94L6.559,8.994L6.557,9.048L6.555,9.103L6.553,9.157L6.552,9.211L6.551,9.266L6.55,9.32L6.55,9.376L6.55,20.624L6.55,20.68L6.551,20.734L6.552,20.789L6.553,20.843L6.555,20.897L6.557,20.952L6.559,21.006L6.562,21.06L6.566,21.114L6.569,21.167L6.573,21.221L6.578,21.275L6.582,21.328L6.587,21.382L6.593,21.435L6.599,21.488L6.605,21.541L6.612,21.594L6.619,21.647L6.626,21.7L6.634,21.753L6.642,21.805L6.65,21.858L6.659,21.91L6.668,21.962L6.678,22.015L6.688,22.067L6.698,22.119L6.708,22.17L6.719,22.222L6.73,22.274L6.742,22.325L6.754,22.377L6.766,22.428L6.779,22.479L6.792,22.53L6.805,22.581L6.819,22.632L6.833,22.682L6.848,22.733L6.862,22.783L6.877,22.834L6.893,22.884L6.909,22.934L6.925,22.984L6.941,23.034L6.958,23.083L6.975,23.133L6.992,23.182L7.01,23.232L7.028,23.281L7.047,23.33L7.065,23.379L7.084,23.427L7.104,23.476L7.123,23.524L7.143,23.573L7.164,23.621L7.185,23.669L7.205,23.716L7.248,23.812L7.293,23.907L7.338,24.002L7.385,24.095L7.433,24.188L7.482,24.281L7.532,24.373L7.584,24.464L7.637,24.554L7.691,24.644L7.746,24.734L7.802,24.822L7.86,24.91L7.918,24.998L7.978,25.084L8.039,25.17L8.101,25.256L8.164,25.34L8.229,25.424L8.294,25.507L8.36,25.59L8.428,25.671L8.497,25.752L8.566,25.832L8.637,25.912L8.709,25.99L8.782,26.068L8.855,26.145L8.93,26.221L9.006,26.297L9.083,26.371L9.161,26.445L9.24,26.518L9.319,26.59L9.4,26.661L9.482,26.731L9.564,26.801L9.648,26.87L9.732,26.937L9.818,27.004L9.904,27.07L9.991,27.135L10.079,27.199L10.168,27.262L10.258,27.325L10.348,27.386L10.44,27.446L10.532,27.505L10.625,27.564L10.719,27.621L10.814,27.678L10.909,27.733L11.005,27.787L11.103,27.841L11.2,27.893L11.299,27.945L11.398,27.995L11.498,28.044L11.599,28.092L11.7,28.139L11.803,28.185L11.906,28.23L12.009,28.274L12.113,28.317L12.218,28.359L12.324,28.399L12.43,28.439L12.538,28.478L12.591,28.496L12.644,28.514L12.698,28.533L12.753,28.55L12.807,28.568L12.861,28.585L12.916,28.602L12.971,28.619L13.026,28.636L13.081,28.652L13.136,28.668L13.191,28.683L13.247,28.698L13.302,28.713L13.358,28.728L13.414,28.742L13.47,28.756L13.526,28.77L13.583,28.784L13.639,28.797L13.696,28.81L13.752,28.822L13.809,28.834L13.866,28.846L13.923,28.858L13.981,28.869L14.038,28.88L14.096,28.891L14.153,28.901L14.211,28.911L14.269,28.921L14.327,28.931L14.385,28.94L14.444,28.949L14.502,28.957L14.561,28.965L14.619,28.973L14.678,28.981L14.737,28.988L14.796,28.995L14.855,29.001L14.914,29.007L14.974,29.013L15.033,29.019L15.093,29.024L15.153,29.029L15.212,29.034L15.272,29.038L15.332,29.042L15.393,29.045L15.453,29.049L15.513,29.051L15.574,29.054L15.634,29.056L15.695,29.058L15.756,29.06L15.817,29.061L15.878,29.062L15.939,29.062L16,29.062L16.061,29.062L16.122,29.062L16.183,29.061L16.244,29.06L16.305,29.058L16.366,29.056L16.426,29.054L16.487,29.051L16.547,29.049L16.607,29.045L16.668,29.042L16.728,29.038L16.788,29.034L16.847,29.029L16.907,29.024L16.967,29.019L17.026,29.013L17.086,29.007L17.145,29.001L17.204,28.995L17.263,28.988L17.322,28.981L17.381,28.973L17.439,28.965L17.498,28.957L17.556,28.949L17.615,28.94L17.673,28.931L17.731,28.921L17.789,28.911L17.847,28.901L17.904,28.891L17.962,28.88L18.019,28.869L18.077,28.858L18.134,28.846L18.191,28.834L18.248,28.822L18.304,28.81L18.361,28.797L18.417,28.784L18.474,28.77L18.53,28.756L18.586,28.742L18.642,28.728L18.698,28.713L18.753,28.698L18.809,28.683L18.864,28.668L18.919,28.652L18.974,28.636L19.029,28.619L19.084,28.602L19.139,28.585L19.193,28.568L19.247,28.55L19.302,28.533L19.356,28.514L19.409,28.496L19.462,28.478L19.57,28.439L19.676,28.399L19.782,28.359L19.887,28.317L19.991,28.274L20.094,28.23L20.197,28.185L20.3,28.139L20.401,28.092L20.502,28.044L20.602,27.995L20.701,27.945L20.8,27.893L20.897,27.841L20.995,27.787L21.091,27.733L21.186,27.678L21.281,27.621L21.375,27.564L21.468,27.505L21.56,27.446L21.652,27.386L21.742,27.325L21.832,27.262L21.921,27.199L22.009,27.135L22.096,27.07L22.182,27.004L22.268,26.937L22.352,26.87L22.436,26.801L22.518,26.731L22.6,26.661L22.681,26.59L22.76,26.518L22.839,26.445L22.917,26.371L22.994,26.297L23.07,26.221L23.145,26.145L23.218,26.068L23.291,25.99L23.363,25.912L23.434,25.832L23.503,25.752L23.572,25.671L23.64,25.59L23.706,25.507L23.771,25.424L23.836,25.34L23.899,25.256L23.961,25.17L24.022,25.084L24.082,24.998L24.14,24.91L24.198,24.822L24.254,24.734L24.309,24.644L24.363,24.554L24.416,24.464L24.468,24.373L24.518,24.281L24.567,24.188L24.615,24.095L24.662,24.002L24.707,23.907L24.752,23.812L24.795,23.716L24.815,23.669L24.836,23.621L24.857,23.573L24.877,23.524L24.896,23.476L24.916,23.427L24.935,23.379L24.953,23.33L24.972,23.281L24.99,23.232L25.008,23.182L25.025,23.133L25.042,23.083L25.059,23.034L25.075,22.984L25.091,22.934L25.107,22.884L25.123,22.834L25.138,22.783L25.152,22.733L25.167,22.682L25.181,22.632L25.195,22.581L25.208,22.53L25.221,22.479L25.234,22.428L25.246,22.377L25.258,22.325L25.269,22.274L25.281,22.222L25.292,22.17L25.302,22.119L25.312,22.067L25.322,22.015L25.332,21.962L25.341,21.91L25.35,21.858L25.358,21.805L25.366,21.753L25.374,21.7L25.381,21.647L25.388,21.594L25.395,21.541L25.401,21.488L25.407,21.435L25.412,21.382L25.418,21.328L25.422,21.275L25.427,21.221L25.431,21.167L25.434,21.114L25.438,21.06L25.441,21.006L25.443,20.952L25.445,20.897L25.447,20.843L25.448,20.789L25.449,20.734L25.45,20.68L25.45,20.624L25.45,9.376L25.45,9.32L25.449,9.266L25.448,9.211L25.447,9.157L25.445,9.103L25.443,9.048L25.441,8.994L25.438,8.94L25.434,8.886L25.431,8.833L25.427,8.779L25.422,8.725L25.418,8.672L25.412,8.618L25.407,8.565L25.401,8.512L25.395,8.459L25.388,8.406L25.381,8.353L25.374,8.3L25.366,8.247L25.358,8.195L25.35,8.142L25.341,8.09L25.332,8.038L25.322,7.985L25.312,7.933L25.302,7.881L25.292,7.83L25.281,7.778L25.269,7.726L25.258,7.675L25.246,7.623L25.234,7.572L25.221,7.521L25.208,7.47L25.195,7.419L25.181,7.368L25.167,7.318L25.152,7.267L25.138,7.217L25.123,7.166L25.107,7.116L25.091,7.066L25.075,7.016L25.059,6.966L25.042,6.917L25.025,6.867L25.008,6.818L24.99,6.768L24.972,6.719L24.953,6.67L24.935,6.621L24.916,6.573L24.896,6.524L24.877,6.476L24.857,6.427L24.836,6.379L24.815,6.331L24.795,6.284L24.752,6.188L24.707,6.093L24.662,5.998L24.615,5.905L24.567,5.812L24.518,5.719L24.468,5.627L24.416,5.536L24.363,5.446L24.309,5.356L24.254,5.266L24.198,5.178L24.14,5.09L24.082,5.002L24.022,4.916L23.961,4.83L23.899,4.744L23.836,4.66L23.771,4.576L23.706,4.493L23.64,4.41L23.572,4.329L23.503,4.248L23.434,4.168L23.363,4.088L23.291,4.01L23.218,3.932L23.145,3.855L23.07,3.779L22.994,3.703L22.917,3.629L22.839,3.555L22.76,3.482L22.681,3.41L22.6,3.339L22.518,3.269L22.436,3.199L22.352,3.13L22.268,3.063L22.182,2.996L22.096,2.93L22.009,2.865L21.921,2.801L21.832,2.738L21.742,2.675L21.652,2.614L21.56,2.554L21.468,2.495L21.375,2.436L21.281,2.379L21.186,2.322L21.091,2.267L20.995,2.213L20.897,2.159L20.8,2.107L20.701,2.055L20.602,2.005L20.502,1.956L20.401,1.908L20.3,1.861L20.197,1.815L20.094,1.77L19.991,1.726L19.887,1.683L19.782,1.641L19.676,1.601L19.57,1.561L19.462,1.522L19.409,1.504L19.356,1.486L19.302,1.467L19.247,1.45L19.193,1.432L19.139,1.415L19.084,1.398L19.029,1.381L18.974,1.364L18.919,1.348L18.864,1.332L18.809,1.317L18.753,1.302L18.698,1.287L18.642,1.272L18.586,1.258L18.53,1.244L18.474,1.23L18.417,1.216L18.361,1.203L18.304,1.19L18.248,1.178L18.191,1.166L18.134,1.154L18.077,1.142L18.019,1.131L17.962,1.12L17.904,1.109L17.847,1.099L17.789,1.089L17.731,1.079L17.673,1.069L17.615,1.06L17.556,1.051L17.498,1.043L17.439,1.035L17.381,1.027L17.322,1.019L17.263,1.012L17.204,1.005L17.145,0.999L17.086,0.993L17.026,0.987L16.967,0.981L16.907,0.976L16.847,0.971L16.788,0.966L16.728,0.962L16.668,0.958L16.607,0.955L16.547,0.951L16.487,0.949L16.426,0.946L16.366,0.944L16.305,0.942L16.244,0.94L16.183,0.939L16.122,0.938L16.061,0.938L16,0.938L15.939,0.938Z"/>
                </g>
                <g transform="matrix(2,0,0,2,0,0)">
                    <path d="M6,12.5L15.5,12.5L15.5,0.5C13.345,0.571 11.278,1.255 9.325,2.744C9.129,2.894 8.957,3.072 8.813,3.273C8.392,3.851 7.407,5.23 6.868,5.985C6.626,6.323 6.473,6.716 6.421,7.128C6.303,8.076 6.085,9.819 6.019,10.346C6.006,10.448 6,10.552 6,10.656C6,11.126 6,12.5 6,12.5Z" style="fill:rgb(242,242,242);"/>
                </g>
                <g transform="matrix(1.90476,0,0,2.13333,0.52381,0)">
                    <path d="M16.068,0L16.136,0.001L16.203,0.002L16.271,0.003L16.338,0.005L16.406,0.007L16.473,0.009L16.54,0.012L16.607,0.015L16.674,0.019L16.741,0.023L16.807,0.027L16.874,0.032L16.94,0.037L17.007,0.043L17.073,0.048L17.139,0.055L17.205,0.061L17.271,0.068L17.337,0.075L17.402,0.083L17.468,0.091L17.533,0.099L17.598,0.108L17.663,0.117L17.728,0.127L17.793,0.136L17.858,0.147L17.922,0.157L17.987,0.168L18.051,0.179L18.115,0.191L18.179,0.202L18.243,0.215L18.307,0.227L18.37,0.24L18.433,0.254L18.497,0.267L18.56,0.281L18.623,0.295L18.686,0.31L18.748,0.325L18.811,0.34L18.873,0.356L18.935,0.372L18.997,0.388L19.059,0.405L19.121,0.422L19.182,0.439L19.244,0.457L19.305,0.475L19.366,0.493L19.427,0.512L19.488,0.53L19.548,0.55L19.609,0.569L19.669,0.589L19.729,0.609L19.789,0.63L19.848,0.651L19.967,0.693L20.085,0.737L20.203,0.782L20.319,0.829L20.435,0.876L20.55,0.925L20.665,0.975L20.778,1.026L20.891,1.079L21.003,1.132L21.114,1.187L21.225,1.243L21.334,1.3L21.443,1.358L21.551,1.417L21.658,1.478L21.764,1.539L21.869,1.602L21.973,1.666L22.077,1.731L22.179,1.797L22.281,1.863L22.381,1.932L22.481,2.001L22.58,2.071L22.677,2.142L22.774,2.214L22.87,2.287L22.965,2.361L23.058,2.437L23.151,2.513L23.243,2.59L23.334,2.668L23.423,2.747L23.512,2.827L23.599,2.908L23.686,2.99L23.771,3.073L23.855,3.157L23.938,3.241L24.02,3.327L24.101,3.413L24.181,3.5L24.259,3.588L24.337,3.677L24.413,3.767L24.488,3.858L24.562,3.949L24.634,4.042L24.706,4.135L24.776,4.229L24.845,4.324L24.913,4.419L24.979,4.515L25.044,4.612L25.108,4.71L25.171,4.809L25.232,4.908L25.292,5.008L25.351,5.109L25.408,5.21L25.464,5.312L25.519,5.415L25.572,5.518L25.624,5.622L25.674,5.727L25.723,5.833L25.771,5.939L25.795,5.992L25.818,6.046L25.84,6.099L25.862,6.153L25.884,6.207L25.906,6.261L25.927,6.315L25.948,6.37L25.968,6.424L25.988,6.479L26.008,6.533L26.028,6.588L26.047,6.644L26.065,6.699L26.084,6.754L26.101,6.81L26.119,6.865L26.136,6.921L26.153,6.977L26.169,7.033L26.185,7.089L26.201,7.146L26.216,7.202L26.231,7.259L26.245,7.316L26.259,7.372L26.273,7.429L26.287,7.487L26.299,7.544L26.312,7.601L26.324,7.659L26.336,7.716L26.347,7.774L26.358,7.832L26.369,7.89L26.379,7.948L26.389,8.006L26.398,8.065L26.407,8.123L26.416,8.182L26.424,8.24L26.431,8.299L26.439,8.358L26.446,8.417L26.452,8.476L26.458,8.535L26.464,8.595L26.469,8.654L26.474,8.714L26.479,8.773L26.483,8.833L26.486,8.893L26.49,8.953L26.492,9.013L26.495,9.073L26.497,9.133L26.498,9.194L26.499,9.254L26.5,9.314L26.5,9.375L26.5,20.625L26.5,20.686L26.499,20.746L26.498,20.806L26.497,20.867L26.495,20.927L26.492,20.987L26.49,21.047L26.486,21.107L26.483,21.167L26.479,21.227L26.474,21.286L26.469,21.346L26.464,21.405L26.458,21.465L26.452,21.524L26.446,21.583L26.439,21.642L26.431,21.701L26.424,21.76L26.416,21.818L26.407,21.877L26.398,21.935L26.389,21.994L26.379,22.052L26.369,22.11L26.358,22.168L26.347,22.226L26.336,22.284L26.324,22.341L26.312,22.399L26.299,22.456L26.287,22.513L26.273,22.571L26.259,22.628L26.245,22.684L26.231,22.741L26.216,22.798L26.201,22.854L26.185,22.911L26.169,22.967L26.153,23.023L26.136,23.079L26.119,23.135L26.101,23.19L26.084,23.246L26.065,23.301L26.047,23.356L26.028,23.412L26.008,23.467L25.988,23.521L25.968,23.576L25.948,23.63L25.927,23.685L25.906,23.739L25.884,23.793L25.862,23.847L25.84,23.901L25.818,23.954L25.795,24.008L25.771,24.061L25.723,24.167L25.674,24.273L25.624,24.378L25.572,24.482L25.519,24.585L25.464,24.688L25.408,24.79L25.351,24.891L25.292,24.992L25.232,25.092L25.171,25.191L25.108,25.29L25.044,25.388L24.979,25.485L24.913,25.581L24.845,25.676L24.776,25.771L24.706,25.865L24.634,25.958L24.562,26.051L24.488,26.142L24.413,26.233L24.337,26.323L24.259,26.412L24.181,26.5L24.101,26.587L24.02,26.673L23.938,26.759L23.855,26.843L23.771,26.927L23.686,27.01L23.599,27.092L23.512,27.173L23.423,27.253L23.334,27.332L23.243,27.41L23.151,27.487L23.058,27.563L22.965,27.639L22.87,27.713L22.774,27.786L22.677,27.858L22.58,27.929L22.481,27.999L22.381,28.068L22.281,28.137L22.179,28.203L22.077,28.269L21.973,28.334L21.869,28.398L21.764,28.461L21.658,28.522L21.551,28.583L21.443,28.642L21.334,28.7L21.225,28.757L21.114,28.813L21.003,28.868L20.891,28.921L20.778,28.974L20.665,29.025L20.55,29.075L20.435,29.124L20.319,29.171L20.203,29.218L20.085,29.263L19.967,29.307L19.848,29.349L19.789,29.37L19.729,29.391L19.669,29.411L19.609,29.431L19.548,29.45L19.488,29.47L19.427,29.488L19.366,29.507L19.305,29.525L19.244,29.543L19.182,29.561L19.121,29.578L19.059,29.595L18.997,29.612L18.935,29.628L18.873,29.644L18.811,29.66L18.748,29.675L18.686,29.69L18.623,29.705L18.56,29.719L18.497,29.733L18.433,29.746L18.37,29.76L18.307,29.773L18.243,29.785L18.179,29.798L18.115,29.809L18.051,29.821L17.987,29.832L17.922,29.843L17.858,29.853L17.793,29.864L17.728,29.873L17.663,29.883L17.598,29.892L17.533,29.901L17.468,29.909L17.402,29.917L17.337,29.925L17.271,29.932L17.205,29.939L17.139,29.945L17.073,29.952L17.007,29.957L16.94,29.963L16.874,29.968L16.807,29.973L16.741,29.977L16.674,29.981L16.607,29.985L16.54,29.988L16.473,29.991L16.406,29.993L16.338,29.995L16.271,29.997L16.203,29.998L16.136,29.999L16.068,30L16,30L15.932,30L15.864,29.999L15.797,29.998L15.729,29.997L15.662,29.995L15.594,29.993L15.527,29.991L15.46,29.988L15.393,29.985L15.326,29.981L15.259,29.977L15.193,29.973L15.126,29.968L15.06,29.963L14.993,29.957L14.927,29.952L14.861,29.945L14.795,29.939L14.729,29.932L14.663,29.925L14.598,29.917L14.532,29.909L14.467,29.901L14.402,29.892L14.337,29.883L14.272,29.873L14.207,29.864L14.142,29.853L14.078,29.843L14.013,29.832L13.949,29.821L13.885,29.809L13.821,29.798L13.757,29.785L13.693,29.773L13.63,29.76L13.567,29.746L13.503,29.733L13.44,29.719L13.377,29.705L13.314,29.69L13.252,29.675L13.189,29.66L13.127,29.644L13.065,29.628L13.003,29.612L12.941,29.595L12.879,29.578L12.818,29.561L12.756,29.543L12.695,29.525L12.634,29.507L12.573,29.488L12.512,29.47L12.452,29.45L12.391,29.431L12.331,29.411L12.271,29.391L12.211,29.37L12.152,29.349L12.033,29.307L11.915,29.263L11.797,29.218L11.681,29.171L11.565,29.124L11.45,29.075L11.335,29.025L11.222,28.974L11.109,28.921L10.997,28.868L10.886,28.813L10.775,28.757L10.666,28.7L10.557,28.642L10.449,28.583L10.342,28.522L10.236,28.461L10.131,28.398L10.027,28.334L9.923,28.269L9.821,28.203L9.719,28.137L9.619,28.068L9.519,27.999L9.42,27.929L9.323,27.858L9.226,27.786L9.13,27.713L9.035,27.639L8.942,27.563L8.849,27.487L8.757,27.41L8.666,27.332L8.577,27.253L8.488,27.173L8.401,27.092L8.314,27.01L8.229,26.927L8.145,26.843L8.062,26.759L7.98,26.673L7.899,26.587L7.819,26.5L7.741,26.412L7.663,26.323L7.587,26.233L7.512,26.142L7.438,26.051L7.366,25.958L7.294,25.865L7.224,25.771L7.155,25.676L7.087,25.581L7.021,25.485L6.956,25.388L6.892,25.29L6.829,25.191L6.768,25.092L6.708,24.992L6.649,24.891L6.592,24.79L6.536,24.688L6.481,24.585L6.428,24.482L6.376,24.378L6.326,24.273L6.277,24.167L6.229,24.061L6.205,24.008L6.182,23.954L6.16,23.901L6.138,23.847L6.116,23.793L6.094,23.739L6.073,23.685L6.052,23.63L6.032,23.576L6.012,23.521L5.992,23.467L5.972,23.412L5.953,23.356L5.935,23.301L5.916,23.246L5.899,23.19L5.881,23.135L5.864,23.079L5.847,23.023L5.831,22.967L5.815,22.911L5.799,22.854L5.784,22.798L5.769,22.741L5.755,22.684L5.741,22.628L5.727,22.571L5.713,22.513L5.701,22.456L5.688,22.399L5.676,22.341L5.664,22.284L5.653,22.226L5.642,22.168L5.631,22.11L5.621,22.052L5.611,21.994L5.602,21.935L5.593,21.877L5.584,21.818L5.576,21.76L5.569,21.701L5.561,21.642L5.554,21.583L5.548,21.524L5.542,21.465L5.536,21.405L5.531,21.346L5.526,21.286L5.521,21.227L5.517,21.167L5.514,21.107L5.51,21.047L5.508,20.987L5.505,20.927L5.503,20.867L5.502,20.806L5.501,20.746L5.5,20.686L5.5,20.625L5.5,9.375L5.5,9.314L5.501,9.254L5.502,9.194L5.503,9.133L5.505,9.073L5.508,9.013L5.51,8.953L5.514,8.893L5.517,8.833L5.521,8.773L5.526,8.714L5.531,8.654L5.536,8.595L5.542,8.535L5.548,8.476L5.554,8.417L5.561,8.358L5.569,8.299L5.576,8.24L5.584,8.182L5.593,8.123L5.602,8.065L5.611,8.006L5.621,7.948L5.631,7.89L5.642,7.832L5.653,7.774L5.664,7.716L5.676,7.659L5.688,7.601L5.701,7.544L5.713,7.487L5.727,7.429L5.741,7.372L5.755,7.316L5.769,7.259L5.784,7.202L5.799,7.146L5.815,7.089L5.831,7.033L5.847,6.977L5.864,6.921L5.881,6.865L5.899,6.81L5.916,6.754L5.935,6.699L5.953,6.644L5.972,6.588L5.992,6.533L6.012,6.479L6.032,6.424L6.052,6.37L6.073,6.315L6.094,6.261L6.116,6.207L6.138,6.153L6.16,6.099L6.182,6.046L6.205,5.992L6.229,5.939L6.277,5.833L6.326,5.727L6.376,5.622L6.428,5.518L6.481,5.415L6.536,5.312L6.592,5.21L6.649,5.109L6.708,5.008L6.768,4.908L6.829,4.809L6.892,4.71L6.956,4.612L7.021,4.515L7.087,4.419L7.155,4.324L7.224,4.229L7.294,4.135L7.366,4.042L7.438,3.949L7.512,3.858L7.587,3.767L7.663,3.677L7.741,3.588L7.819,3.5L7.899,3.413L7.98,3.327L8.062,3.241L8.145,3.157L8.229,3.073L8.314,2.99L8.401,2.908L8.488,2.827L8.577,2.747L8.666,2.668L8.757,2.59L8.849,2.513L8.942,2.437L9.035,2.361L9.13,2.287L9.226,2.214L9.323,2.142L9.42,2.071L9.519,2.001L9.619,1.932L9.719,1.863L9.821,1.797L9.923,1.731L10.027,1.666L10.131,1.602L10.236,1.539L10.342,1.478L10.449,1.417L10.557,1.358L10.666,1.3L10.775,1.243L10.886,1.187L10.997,1.132L11.109,1.079L11.222,1.026L11.335,0.975L11.45,0.925L11.565,0.876L11.681,0.829L11.797,0.782L11.915,0.737L12.033,0.693L12.152,0.651L12.211,0.63L12.271,0.609L12.331,0.589L12.391,0.569L12.452,0.55L12.512,0.53L12.573,0.512L12.634,0.493L12.695,0.475L12.756,0.457L12.818,0.439L12.879,0.422L12.941,0.405L13.003,0.388L13.065,0.372L13.127,0.356L13.189,0.34L13.252,0.325L13.314,0.31L13.377,0.295L13.44,0.281L13.503,0.267L13.567,0.254L13.63,0.24L13.693,0.227L13.757,0.215L13.821,0.202L13.885,0.191L13.949,0.179L14.013,0.168L14.078,0.157L14.142,0.147L14.207,0.136L14.272,0.127L14.337,0.117L14.402,0.108L14.467,0.099L14.532,0.091L14.598,0.083L14.663,0.075L14.729,0.068L14.795,0.061L14.861,0.055L14.927,0.048L14.993,0.043L15.06,0.037L15.126,0.032L15.193,0.027L15.259,0.023L15.326,0.019L15.393,0.015L15.46,0.012L15.527,0.009L15.594,0.007L15.662,0.005L15.729,0.003L15.797,0.002L15.864,0.001L15.932,0L16,0L16.068,0ZM15.939,0.938L15.878,0.938L15.817,0.939L15.756,0.94L15.695,0.942L15.634,0.944L15.574,0.946L15.513,0.949L15.453,0.951L15.393,0.955L15.332,0.958L15.272,0.962L15.212,0.966L15.153,0.971L15.093,0.976L15.033,0.981L14.974,0.987L14.914,0.993L14.855,0.999L14.796,1.005L14.737,1.012L14.678,1.019L14.619,1.027L14.561,1.035L14.502,1.043L14.444,1.051L14.385,1.06L14.327,1.069L14.269,1.079L14.211,1.089L14.153,1.099L14.096,1.109L14.038,1.12L13.981,1.131L13.923,1.142L13.866,1.154L13.809,1.166L13.752,1.178L13.696,1.19L13.639,1.203L13.583,1.216L13.526,1.23L13.47,1.244L13.414,1.258L13.358,1.272L13.302,1.287L13.247,1.302L13.191,1.317L13.136,1.332L13.081,1.348L13.026,1.364L12.971,1.381L12.916,1.398L12.861,1.415L12.807,1.432L12.753,1.45L12.698,1.467L12.644,1.486L12.591,1.504L12.538,1.522L12.43,1.561L12.324,1.601L12.218,1.641L12.113,1.683L12.009,1.726L11.906,1.77L11.803,1.815L11.7,1.861L11.599,1.908L11.498,1.956L11.398,2.005L11.299,2.055L11.2,2.107L11.103,2.159L11.005,2.213L10.909,2.267L10.814,2.322L10.719,2.379L10.625,2.436L10.532,2.495L10.44,2.554L10.348,2.614L10.258,2.675L10.168,2.738L10.079,2.801L9.991,2.865L9.904,2.93L9.818,2.996L9.732,3.063L9.648,3.13L9.564,3.199L9.482,3.269L9.4,3.339L9.319,3.41L9.24,3.482L9.161,3.555L9.083,3.629L9.006,3.703L8.93,3.779L8.855,3.855L8.782,3.932L8.709,4.01L8.637,4.088L8.566,4.168L8.497,4.248L8.428,4.329L8.36,4.41L8.294,4.493L8.229,4.576L8.164,4.66L8.101,4.744L8.039,4.83L7.978,4.916L7.918,5.002L7.86,5.09L7.802,5.178L7.746,5.266L7.691,5.356L7.637,5.446L7.584,5.536L7.532,5.627L7.482,5.719L7.433,5.812L7.385,5.905L7.338,5.998L7.293,6.093L7.248,6.188L7.205,6.284L7.185,6.331L7.164,6.379L7.143,6.427L7.123,6.476L7.104,6.524L7.084,6.573L7.065,6.621L7.047,6.67L7.028,6.719L7.01,6.768L6.992,6.818L6.975,6.867L6.958,6.917L6.941,6.966L6.925,7.016L6.909,7.066L6.893,7.116L6.877,7.166L6.862,7.217L6.848,7.267L6.833,7.318L6.819,7.368L6.805,7.419L6.792,7.47L6.779,7.521L6.766,7.572L6.754,7.623L6.742,7.675L6.73,7.726L6.719,7.778L6.708,7.83L6.698,7.881L6.688,7.933L6.678,7.985L6.668,8.038L6.659,8.09L6.65,8.142L6.642,8.195L6.634,8.247L6.626,8.3L6.619,8.353L6.612,8.406L6.605,8.459L6.599,8.512L6.593,8.565L6.587,8.618L6.582,8.672L6.578,8.725L6.573,8.779L6.569,8.833L6.566,8.886L6.562,8.94L6.559,8.994L6.557,9.048L6.555,9.103L6.553,9.157L6.552,9.211L6.551,9.266L6.55,9.32L6.55,9.376L6.55,20.624L6.55,20.68L6.551,20.734L6.552,20.789L6.553,20.843L6.555,20.897L6.557,20.952L6.559,21.006L6.562,21.06L6.566,21.114L6.569,21.167L6.573,21.221L6.578,21.275L6.582,21.328L6.587,21.382L6.593,21.435L6.599,21.488L6.605,21.541L6.612,21.594L6.619,21.647L6.626,21.7L6.634,21.753L6.642,21.805L6.65,21.858L6.659,21.91L6.668,21.962L6.678,22.015L6.688,22.067L6.698,22.119L6.708,22.17L6.719,22.222L6.73,22.274L6.742,22.325L6.754,22.377L6.766,22.428L6.779,22.479L6.792,22.53L6.805,22.581L6.819,22.632L6.833,22.682L6.848,22.733L6.862,22.783L6.877,22.834L6.893,22.884L6.909,22.934L6.925,22.984L6.941,23.034L6.958,23.083L6.975,23.133L6.992,23.182L7.01,23.232L7.028,23.281L7.047,23.33L7.065,23.379L7.084,23.427L7.104,23.476L7.123,23.524L7.143,23.573L7.164,23.621L7.185,23.669L7.205,23.716L7.248,23.812L7.293,23.907L7.338,24.002L7.385,24.095L7.433,24.188L7.482,24.281L7.532,24.373L7.584,24.464L7.637,24.554L7.691,24.644L7.746,24.734L7.802,24.822L7.86,24.91L7.918,24.998L7.978,25.084L8.039,25.17L8.101,25.256L8.164,25.34L8.229,25.424L8.294,25.507L8.36,25.59L8.428,25.671L8.497,25.752L8.566,25.832L8.637,25.912L8.709,25.99L8.782,26.068L8.855,26.145L8.93,26.221L9.006,26.297L9.083,26.371L9.161,26.445L9.24,26.518L9.319,26.59L9.4,26.661L9.482,26.731L9.564,26.801L9.648,26.87L9.732,26.937L9.818,27.004L9.904,27.07L9.991,27.135L10.079,27.199L10.168,27.262L10.258,27.325L10.348,27.386L10.44,27.446L10.532,27.505L10.625,27.564L10.719,27.621L10.814,27.678L10.909,27.733L11.005,27.787L11.103,27.841L11.2,27.893L11.299,27.945L11.398,27.995L11.498,28.044L11.599,28.092L11.7,28.139L11.803,28.185L11.906,28.23L12.009,28.274L12.113,28.317L12.218,28.359L12.324,28.399L12.43,28.439L12.538,28.478L12.591,28.496L12.644,28.514L12.698,28.533L12.753,28.55L12.807,28.568L12.861,28.585L12.916,28.602L12.971,28.619L13.026,28.636L13.081,28.652L13.136,28.668L13.191,28.683L13.247,28.698L13.302,28.713L13.358,28.728L13.414,28.742L13.47,28.756L13.526,28.77L13.583,28.784L13.639,28.797L13.696,28.81L13.752,28.822L13.809,28.834L13.866,28.846L13.923,28.858L13.981,28.869L14.038,28.88L14.096,28.891L14.153,28.901L14.211,28.911L14.269,28.921L14.327,28.931L14.385,28.94L14.444,28.949L14.502,28.957L14.561,28.965L14.619,28.973L14.678,28.981L14.737,28.988L14.796,28.995L14.855,29.001L14.914,29.007L14.974,29.013L15.033,29.019L15.093,29.024L15.153,29.029L15.212,29.034L15.272,29.038L15.332,29.042L15.393,29.045L15.453,29.049L15.513,29.051L15.574,29.054L15.634,29.056L15.695,29.058L15.756,29.06L15.817,29.061L15.878,29.062L15.939,29.062L16,29.062L16.061,29.062L16.122,29.062L16.183,29.061L16.244,29.06L16.305,29.058L16.366,29.056L16.426,29.054L16.487,29.051L16.547,29.049L16.607,29.045L16.668,29.042L16.728,29.038L16.788,29.034L16.847,29.029L16.907,29.024L16.967,29.019L17.026,29.013L17.086,29.007L17.145,29.001L17.204,28.995L17.263,28.988L17.322,28.981L17.381,28.973L17.439,28.965L17.498,28.957L17.556,28.949L17.615,28.94L17.673,28.931L17.731,28.921L17.789,28.911L17.847,28.901L17.904,28.891L17.962,28.88L18.019,28.869L18.077,28.858L18.134,28.846L18.191,28.834L18.248,28.822L18.304,28.81L18.361,28.797L18.417,28.784L18.474,28.77L18.53,28.756L18.586,28.742L18.642,28.728L18.698,28.713L18.753,28.698L18.809,28.683L18.864,28.668L18.919,28.652L18.974,28.636L19.029,28.619L19.084,28.602L19.139,28.585L19.193,28.568L19.247,28.55L19.302,28.533L19.356,28.514L19.409,28.496L19.462,28.478L19.57,28.439L19.676,28.399L19.782,28.359L19.887,28.317L19.991,28.274L20.094,28.23L20.197,28.185L20.3,28.139L20.401,28.092L20.502,28.044L20.602,27.995L20.701,27.945L20.8,27.893L20.897,27.841L20.995,27.787L21.091,27.733L21.186,27.678L21.281,27.621L21.375,27.564L21.468,27.505L21.56,27.446L21.652,27.386L21.742,27.325L21.832,27.262L21.921,27.199L22.009,27.135L22.096,27.07L22.182,27.004L22.268,26.937L22.352,26.87L22.436,26.801L22.518,26.731L22.6,26.661L22.681,26.59L22.76,26.518L22.839,26.445L22.917,26.371L22.994,26.297L23.07,26.221L23.145,26.145L23.218,26.068L23.291,25.99L23.363,25.912L23.434,25.832L23.503,25.752L23.572,25.671L23.64,25.59L23.706,25.507L23.771,25.424L23.836,25.34L23.899,25.256L23.961,25.17L24.022,25.084L24.082,24.998L24.14,24.91L24.198,24.822L24.254,24.734L24.309,24.644L24.363,24.554L24.416,24.464L24.468,24.373L24.518,24.281L24.567,24.188L24.615,24.095L24.662,24.002L24.707,23.907L24.752,23.812L24.795,23.716L24.815,23.669L24.836,23.621L24.857,23.573L24.877,23.524L24.896,23.476L24.916,23.427L24.935,23.379L24.953,23.33L24.972,23.281L24.99,23.232L25.008,23.182L25.025,23.133L25.042,23.083L25.059,23.034L25.075,22.984L25.091,22.934L25.107,22.884L25.123,22.834L25.138,22.783L25.152,22.733L25.167,22.682L25.181,22.632L25.195,22.581L25.208,22.53L25.221,22.479L25.234,22.428L25.246,22.377L25.258,22.325L25.269,22.274L25.281,22.222L25.292,22.17L25.302,22.119L25.312,22.067L25.322,22.015L25.332,21.962L25.341,21.91L25.35,21.858L25.358,21.805L25.366,21.753L25.374,21.7L25.381,21.647L25.388,21.594L25.395,21.541L25.401,21.488L25.407,21.435L25.412,21.382L25.418,21.328L25.422,21.275L25.427,21.221L25.431,21.167L25.434,21.114L25.438,21.06L25.441,21.006L25.443,20.952L25.445,20.897L25.447,20.843L25.448,20.789L25.449,20.734L25.45,20.68L25.45,20.624L25.45,9.376L25.45,9.32L25.449,9.266L25.448,9.211L25.447,9.157L25.445,9.103L25.443,9.048L25.441,8.994L25.438,8.94L25.434,8.886L25.431,8.833L25.427,8.779L25.422,8.725L25.418,8.672L25.412,8.618L25.407,8.565L25.401,8.512L25.395,8.459L25.388,8.406L25.381,8.353L25.374,8.3L25.366,8.247L25.358,8.195L25.35,8.142L25.341,8.09L25.332,8.038L25.322,7.985L25.312,7.933L25.302,7.881L25.292,7.83L25.281,7.778L25.269,7.726L25.258,7.675L25.246,7.623L25.234,7.572L25.221,7.521L25.208,7.47L25.195,7.419L25.181,7.368L25.167,7.318L25.152,7.267L25.138,7.217L25.123,7.166L25.107,7.116L25.091,7.066L25.075,7.016L25.059,6.966L25.042,6.917L25.025,6.867L25.008,6.818L24.99,6.768L24.972,6.719L24.953,6.67L24.935,6.621L24.916,6.573L24.896,6.524L24.877,6.476L24.857,6.427L24.836,6.379L24.815,6.331L24.795,6.284L24.752,6.188L24.707,6.093L24.662,5.998L24.615,5.905L24.567,5.812L24.518,5.719L24.468,5.627L24.416,5.536L24.363,5.446L24.309,5.356L24.254,5.266L24.198,5.178L24.14,5.09L24.082,5.002L24.022,4.916L23.961,4.83L23.899,4.744L23.836,4.66L23.771,4.576L23.706,4.493L23.64,4.41L23.572,4.329L23.503,4.248L23.434,4.168L23.363,4.088L23.291,4.01L23.218,3.932L23.145,3.855L23.07,3.779L22.994,3.703L22.917,3.629L22.839,3.555L22.76,3.482L22.681,3.41L22.6,3.339L22.518,3.269L22.436,3.199L22.352,3.13L22.268,3.063L22.182,2.996L22.096,2.93L22.009,2.865L21.921,2.801L21.832,2.738L21.742,2.675L21.652,2.614L21.56,2.554L21.468,2.495L21.375,2.436L21.281,2.379L21.186,2.322L21.091,2.267L20.995,2.213L20.897,2.159L20.8,2.107L20.701,2.055L20.602,2.005L20.502,1.956L20.401,1.908L20.3,1.861L20.197,1.815L20.094,1.77L19.991,1.726L19.887,1.683L19.782,1.641L19.676,1.601L19.57,1.561L19.462,1.522L19.409,1.504L19.356,1.486L19.302,1.467L19.247,1.45L19.193,1.432L19.139,1.415L19.084,1.398L19.029,1.381L18.974,1.364L18.919,1.348L18.864,1.332L18.809,1.317L18.753,1.302L18.698,1.287L18.642,1.272L18.586,1.258L18.53,1.244L18.474,1.23L18.417,1.216L18.361,1.203L18.304,1.19L18.248,1.178L18.191,1.166L18.134,1.154L18.077,1.142L18.019,1.131L17.962,1.12L17.904,1.109L17.847,1.099L17.789,1.089L17.731,1.079L17.673,1.069L17.615,1.06L17.556,1.051L17.498,1.043L17.439,1.035L17.381,1.027L17.322,1.019L17.263,1.012L17.204,1.005L17.145,0.999L17.086,0.993L17.026,0.987L16.967,0.981L16.907,0.976L16.847,0.971L16.788,0.966L16.728,0.962L16.668,0.958L16.607,0.955L16.547,0.951L16.487,0.949L16.426,0.946L16.366,0.944L16.305,0.942L16.244,0.94L16.183,0.939L16.122,0.938L16.061,0.938L16,0.938L15.939,0.938Z"/>
                </g>
                <g transform="matrix(2,0,0,2.52632,0,-0.263158)">
                    <path d="M15.5,0.5L15.5,10L6,10L25,10" style="fill:none;stroke:black;stroke-width:0.88px;"/>
                </g>
            </g>
        </g>
    </g>
</svg>
